# This file uses centimeters as units for non-parametric coordinates.

v 0.298000 0.493687 0.055677
v 0.298027 0.492797 -0.007458
v 0.298000 -0.498644 0.055693
v 0.298027 -0.474403 -0.006256
v 0.304502 0.493689 0.055200
v 0.304482 -0.498641 0.055200
v 0.541308 -0.498588 0.034138
v 0.541308 0.493704 0.034137
v 0.443560 -0.498570 0.026103
v 0.443560 0.493709 0.026039
v 0.586792 0.493687 0.055683
v 0.586792 -0.498644 0.055687
v 0.587734 0.492797 -0.007458
v 0.587734 -0.474403 -0.006256
v 0.314151 -0.474403 -0.006256
v 0.576265 0.492797 -0.007458
v 0.580657 0.493687 0.055201
v 0.580657 -0.498646 0.055201
v 0.573793 -0.498616 0.043954
v 0.573793 0.493695 0.043952
v 0.576265 -0.474403 -0.006256
v 0.542860 -0.474403 -0.006256
v 0.542860 0.492797 -0.007458
v 0.443581 0.492797 -0.007458
v 0.313903 0.493696 0.043703
v 0.313903 -0.498613 0.043707
v 0.345492 0.493703 0.034388
v 0.345492 -0.498592 0.034388
v 0.346103 -0.474403 -0.006256
v 0.314176 0.492797 -0.007458
v 0.346103 0.492797 -0.007458
v 0.443581 -0.474403 -0.006256
v 0.294662 -0.499148 0.012746
v 0.591535 -0.499148 0.012746
v 0.575294 -0.499083 0.012746
v 0.345808 -0.498872 0.010004
v 0.443569 -0.498502 0.004520
v 0.542106 -0.498815 0.008907
v 0.314053 -0.499080 0.012746
v 0.294146 -0.474244 0.007299
v 0.592268 0.492988 0.006109
v 0.345905 -0.474015 0.004558
v 0.314085 -0.474198 0.007299
v 0.294147 0.492988 0.006109
v 0.592269 -0.474244 0.007299
v 0.575613 -0.474200 0.007299
v 0.443573 -0.473681 -0.000926
v 0.542354 -0.473960 0.003461
vt 0.448799 0.857143
vt 0.392699 0.857143
vt 0.448799 0.142857
vt 0.392699 0.142857
vt 0.479776 0.857143
vt 0.471300 0.142857
vt 0.659683 0.142857
vt 0.659683 0.857143
vt 0.617099 0.142857
vt 0.617099 0.857143
vt 0.785398 0.857143
vt 0.785398 0.142857
vt 0.841498 0.857143
vt 0.841498 0.142857
vt 0.504899 0.142857
vt 0.426298 0.142857
vt 0.474865 0.142857
vt 0.819077 0.857143
vt 0.766367 0.857143
vt 0.766367 0.142857
vt 0.721056 0.142857
vt 0.721056 0.857143
vt 0.131231 0.142857
vt 0.176542 0.142857
vt 0.078521 0.142857
vt 0.152441 0.142857
vt 0.745157 0.857143
vt 0.694628 0.857143
vt 0.519197 0.857143
vt 0.519197 0.142857
vt 0.566561 0.857143
vt 0.566561 0.142857
vt 0.378401 0.142857
vt 0.401098 0.142857
vt 0.331037 0.142857
vt 0.425569 0.857143
vt 0.496500 0.857143
vt 0.237915 0.142857
vt 0.280499 0.142857
vt 0.202970 0.142857
vt 0.112200 0.142857
vt 0.056100 0.142857
vt 0.410640 0.142857
vt 0.486958 0.142857
vt 0.823555 0.142857
vt 0.074043 0.142857
vt 0.117029 0.142857
vt 0.367281 0.142857
vt 0.249632 0.142857
vt 0.193945 0.142857
vt 0.436787 0.142857
vt 0.404743 0.142857
vt 0.492855 0.142857
vt 0.829444 0.857143
vt 0.378396 0.142857
vt 0.449303 0.142857
vt 0.404754 0.857143
vt 0.829453 0.142857
vt 0.068145 0.142857
vt 0.104372 0.142857
vt 0.234295 0.142857
vt 0.180303 0.142857
vn -0.996919 0.000007 0.078439
vn -0.998283 0.000069 0.058570
vn -0.998283 0.000069 0.058570
vn -0.994994 -0.000169 -0.099939
vn -0.994994 -0.000169 -0.099939
vn 0.268076 0.002313 0.963395
vn 0.268076 0.002313 0.963395
vn 0.268076 0.002313 0.963395
vn 0.268076 0.002313 0.963395
vn -0.076682 0.004935 0.997043
vn -0.076682 0.004935 0.997043
vn -0.076682 0.004935 0.997043
vn -0.076682 0.004935 0.997043
vn 0.998283 0.000069 0.058570
vn 0.994424 -0.000196 -0.105455
vn 0.994424 -0.000196 -0.105455
vn 0.998283 0.000069 0.058570
vn 0.018525 -0.999641 -0.019364
vn 0.018525 -0.999641 -0.019364
vn 0.004782 -0.782773 -0.622290
vn 0.004782 -0.782773 -0.622290
vn 0.031494 -0.999060 0.029799
vn -0.000813 0.975292 -0.220917
vn -0.052134 0.975010 -0.215958
vn -0.052134 0.975010 -0.215958
vn 0.006148 0.999875 -0.014573
vn -0.052134 0.975010 -0.215958
vn -0.052134 0.975010 -0.215958
vn -0.819150 0.001476 0.573578
vn -0.819150 0.001476 0.573578
vn -0.819150 0.001476 0.573578
vn -0.819150 0.001476 0.573578
vn -0.024641 -0.999691 -0.003147
vn -0.024641 -0.999691 -0.003147
vn -0.005412 -0.782602 -0.622499
vn -0.005412 -0.782602 -0.622499
vn -0.016494 -0.999649 -0.020732
vn -0.024641 -0.999691 -0.003147
vn -0.024641 -0.999691 -0.003147
vn 0.068375 -0.787709 -0.612241
vn 0.068375 -0.787709 -0.612241
vn -0.052134 0.975010 -0.215958
vn 0.003002 0.999810 -0.019284
vn -0.000813 0.975292 -0.220917
vn -0.000813 0.975292 -0.220917
vn 0.001019 0.999707 -0.024199
vn 0.000285 0.975333 -0.220739
vn -0.000813 0.975292 -0.220917
vn -0.000813 0.975292 -0.220917
vn 0.256192 0.003626 0.966619
vn 0.256192 0.003626 0.966619
vn 0.256192 0.003626 0.966619
vn 0.256192 0.003626 0.966619
vn 0.031494 -0.999060 0.029799
vn -0.051065 -0.786430 -0.615565
vn -0.051065 -0.786430 -0.615565
vn 0.018525 -0.999641 -0.019364
vn -0.009866 -0.999124 0.040671
vn 0.031494 -0.999060 0.029799
vn -0.033210 -0.780515 -0.624254
vn -0.033210 -0.780515 -0.624254
vn -0.005252 0.999874 -0.014968
vn 0.028219 0.975835 -0.216679
vn -0.013771 0.974968 -0.221917
vn -0.005252 0.999874 -0.014968
vn -0.013771 0.974968 -0.221917
vn 0.028219 0.975835 -0.216679
vn -0.002958 0.999807 -0.019440
vn -0.013771 0.974968 -0.221917
vn -0.013771 0.974968 -0.221917
vn -0.013771 0.974968 -0.221917
vn -0.000813 0.975292 -0.220917
vn -0.013771 0.974968 -0.221917
vn 0.000833 0.975283 -0.220957
vn -0.001060 0.999708 -0.024136
vn -0.076682 0.004935 0.997043
vn 0.256192 0.003626 0.966619
vn 0.256192 0.003626 0.966619
vn -0.076682 0.004935 0.997043
vn -0.009866 -0.999124 0.040671
vn -0.009866 -0.999124 0.040671
vn 0.026247 -0.780247 -0.624920
vn 0.026247 -0.780247 -0.624920
vn -0.819150 0.001476 0.573578
vn -0.819150 0.001476 0.573578
vn -0.076682 0.004935 0.997043
vn -0.076682 0.004935 0.997043
vn 0.256192 0.003626 0.966619
vn 0.268076 0.002313 0.963395
vn 0.268076 0.002313 0.963395
vn 0.256192 0.003626 0.966619
vn 0.119839 0.001841 0.992792
vn 0.119839 0.001841 0.992792
vn 0.119839 0.001841 0.992792
vn 0.119839 0.001841 0.992792
vn 0.001209 -0.783260 -0.621693
vn 0.001209 -0.783260 -0.621693
vn -0.001460 -0.783249 -0.621706
vn -0.001460 -0.783249 -0.621706
vn 0.066783 -0.783011 -0.618413
vn 0.066783 -0.783011 -0.618413
vn -0.024641 -0.999691 -0.003147
vn -0.009866 -0.999124 0.040671
vn -0.049363 -0.783152 -0.619867
vn -0.049363 -0.783152 -0.619867
vn 0.031494 -0.999060 0.029799
vn 0.031494 -0.999060 0.029799
vn -0.033245 -0.800113 -0.598927
vn -0.033245 -0.800113 -0.598927
vn 0.026272 -0.802765 -0.595716
vn 0.026272 -0.802765 -0.595716
vn 0.993808 0.000010 0.111115
vn 0.998283 0.000069 0.058570
vn 0.998283 0.000069 0.058570
vn -0.998283 0.000069 0.058570
vn -0.998283 0.000069 0.058570
vn 0.018525 -0.999641 -0.019364
vn 0.018525 -0.999641 -0.019364
vn -0.024641 -0.999691 -0.003147
vn -0.016494 -0.999649 -0.020732
vn 0.031494 -0.999060 0.029799
vn -0.009866 -0.999124 0.040671
vn -0.009866 -0.999124 0.040671
vn -0.024641 -0.999691 -0.003147
vn 0.000000 -0.001243 -0.999999
vn 0.000000 -0.001243 -0.999999
vn 0.000000 -0.001243 -0.999999
vn 0.000000 -0.001243 -0.999999
vn 0.000000 -0.001243 -0.999999
vn 0.000000 -0.001243 -0.999999
vn 0.000000 -0.001243 -0.999999
vn 0.000000 -0.001243 -0.999999
vn 0.000000 -0.001243 -0.999999
vn 0.000000 -0.001243 -0.999999
vn 0.000000 -0.001243 -0.999999
vn 0.000000 -0.001243 -0.999999
vn 0.000000 -0.001243 -0.999999
vn 0.000000 -0.001243 -0.999999
g roof_brick
f 33/43/1 3/3/2 1/1/3 44/57/4 40/52/5
f 5/5/6 1/1/7 3/3/8 6/6/9
f 9/9/10 7/7/11 8/8/12 10/10/13
f 13/13/14 41/54/15 45/58/16 14/14/17
f 6/16/18 3/3/19 33/44/20 39/51/21 26/33/22
f 20/22/23 17/19/24 11/11/25 41/54/26 13/13/27 16/18/28
f 19/21/29 18/20/30 17/19/31 20/22/32
f 18/23/33 19/24/34 35/47/35 34/46/36 12/41/37
f 22/26/38 21/25/39 46/60/40 48/62/41
f 16/18/42 23/27/43 8/8/44 20/22/45
f 24/28/46 10/10/47 8/8/48 23/27/49
f 27/31/50 25/29/51 26/30/52 28/32/53
f 29/34/54 42/55/55 43/56/56 15/17/57
f 9/39/58 28/35/59 36/48/60 37/49/61
f 44/57/62 1/1/63 5/5/64 25/29/65 30/36/66 2/2/67
f 27/31/68 31/37/69 30/36/70 25/29/71
f 24/28/72 31/37/73 27/31/74 10/10/75
f 10/10/76 27/31/77 28/32/78 9/9/79
f 7/38/80 9/39/81 37/49/82 38/50/83
f 19/21/84 20/22/85 8/8/86 7/7/87
f 25/29/88 5/5/89 6/6/90 26/30/91
f 12/12/92 11/11/93 17/19/94 18/20/95
f 39/51/21 33/44/20 40/53/96 43/56/97
f 34/46/36 35/47/35 46/60/98 45/59/99
f 38/50/100 35/47/101 19/24/102 7/38/103
f 39/51/104 36/48/105 28/35/106 26/33/107
f 37/49/61 36/48/60 42/55/108 47/61/109
f 38/50/83 37/49/82 47/61/110 48/62/111
f 34/45/112 45/58/16 41/54/15 11/11/113 12/12/114
f 48/62/41 46/60/40 35/47/101 38/50/100
f 43/56/56 42/55/55 36/48/105 39/51/104
f 40/52/5 44/57/4 2/2/115 4/4/116
f 43/56/97 40/53/96 4/15/117 15/17/118
f 45/59/99 46/60/98 21/25/119 14/42/120
f 47/61/109 42/55/108 29/34/121 32/40/122
f 48/62/111 47/61/110 32/40/123 22/26/124
f 4/4/125 2/2/126 30/36/127 31/37/128 24/28/129 23/27/130 16/18/131 13/13/132 14/42/133 21/25/134 22/26/135 32/40/136 29/34/137 15/17/138
