# Blender 3.6.0
# www.blender.org
mtllib open_window.mtl
o open_window
v 0.520000 -0.100000 0.800000
v 0.520000 -0.100000 1.800000
v 0.500000 -0.100000 1.800000
v 0.500000 -0.100000 0.800000
v 0.520000 0.100000 1.800000
v 0.520000 0.100000 0.800000
v 0.500000 0.100000 0.800000
v 0.500000 0.100000 1.800000
v -0.470000 -0.100000 1.800000
v -0.470000 -0.100000 0.800000
v -0.470000 0.100000 0.800000
v -0.470000 0.100000 1.800000
v -0.500000 0.100000 1.800000
v -0.500000 0.100000 0.800000
v -0.500000 -0.100000 0.800000
v -0.500000 -0.100000 1.800000
v 0.470000 0.100000 1.800000
v 0.470000 0.100000 0.800000
v 0.470000 -0.100000 0.800000
v 0.470000 -0.100000 1.800000
v 0.500000 -0.100000 1.800000
v 0.500000 -0.100000 0.800000
v 0.500000 0.100000 0.800000
v 0.500000 0.100000 1.800000
v 0.488488 0.116940 0.800000
v 0.480675 0.248465 0.800000
v 0.466552 0.486247 0.800000
v 0.486705 0.484260 0.800000
v 0.501380 0.237199 0.800000
v 0.488488 0.116940 1.800000
v 0.459138 0.611069 1.800000
v 0.459138 0.611069 0.800000
v 0.474166 0.358064 1.800000
v 0.479102 0.612255 1.800000
v 0.479102 0.612255 0.800000
v 0.508452 0.118126 1.800000
v 0.508452 0.118126 0.800000
v 0.493379 0.371898 1.800000
v -0.488528 0.103617 0.800000
v -0.488528 0.103617 1.800000
v -0.500000 0.120000 1.800000
v -0.500000 0.120000 0.800000
v -0.094520 0.403920 1.800000
v -0.094520 0.403920 0.800000
v -0.083048 0.387537 1.800000
v -0.083048 0.387537 0.800000
v 0.503269 0.542688 1.704418
v 0.520702 0.249206 1.704418
v 0.528173 0.123427 1.704418
v 0.528173 0.123427 1.664418
v 0.520702 0.249206 1.664418
v 0.503269 0.542688 1.664418
v 0.483305 0.541502 1.704418
v 0.490776 0.415724 1.704418
v 0.508208 0.122241 1.704418
v 0.508208 0.122241 1.664418
v 0.500737 0.248020 1.664418
v 0.490776 0.415724 1.664418
v 0.483305 0.541502 1.664418
v 0.503270 0.542688 0.944418
v 0.519275 0.273236 0.944418
v 0.528173 0.123427 0.944418
v 0.528173 0.123427 0.904418
v 0.515721 0.333058 0.904418
v 0.503270 0.542688 0.904418
v 0.483305 0.541502 0.944418
v 0.490776 0.415724 0.944418
v 0.500737 0.248020 0.944418
v 0.508208 0.122241 0.944418
v 0.508208 0.122241 0.904418
v 0.500737 0.248020 0.904418
v 0.490776 0.415724 0.904418
v 0.483305 0.541502 0.904418
v -0.266448 0.307950 0.944418
v -0.266448 0.307950 0.904418
v -0.511472 0.136383 0.904418
v -0.511472 0.136383 0.944418
v -0.254976 0.291567 0.944418
v -0.254976 0.291567 0.904418
v -0.500000 0.120000 0.904418
v -0.500000 0.120000 0.944418
v -0.266448 0.307951 1.684418
v -0.266448 0.307950 1.644418
v -0.511472 0.136383 1.644418
v -0.511472 0.136383 1.684418
v -0.254976 0.291568 1.684418
v -0.254976 0.291568 1.644418
v -0.500000 0.120000 1.644418
v -0.500000 0.120000 1.684418
v 0.489429 0.101091 1.704418
v 0.489429 0.101091 1.619726
v 0.513176 0.102502 1.619726
v 0.529359 0.103462 1.619726
v 0.529359 0.103462 1.704418
v 0.505451 0.102042 1.704418
v 0.513371 0.102513 1.704418
v 0.504230 0.122005 1.704418
v 0.512159 0.122477 1.704418
v 0.528173 0.123427 1.704418
v 0.528173 0.123427 1.619726
v 0.488243 0.121056 1.619726
v 0.488243 0.121056 1.704418
v 0.504227 0.122005 1.619726
v 0.512146 0.122476 1.619726
v 0.488808 0.111551 1.619726
v 0.488822 0.111317 1.704418
v 0.528884 0.111444 1.704418
v 0.528779 0.113229 1.619726
v 0.470000 0.100000 0.944418
v 0.470000 0.140000 0.944418
v 0.470000 0.140000 0.859726
v 0.470000 0.100000 0.859726
v 0.520000 0.100000 0.944418
v 0.520000 0.100000 0.859726
v 0.520000 0.140000 0.944418
v 0.520000 0.140000 0.859726
v -0.532194 0.100000 0.944418
v -0.532194 0.140000 0.944418
v -0.532194 0.140000 0.859726
v -0.515512 0.100000 0.944418
v -0.515512 0.100000 0.859726
v -0.515512 0.140000 0.859726
v -0.515512 0.140000 0.944418
v -0.532194 0.100000 0.859726
v -0.532194 0.100000 1.684418
v -0.532194 0.140000 1.684418
v -0.532194 0.140000 1.599726
v -0.532194 0.100000 1.599726
v -0.515512 0.100000 1.684418
v -0.515512 0.100000 1.599726
v -0.515512 0.140000 1.599726
v -0.515512 0.140000 1.684418
v 0.470000 -0.100000 0.800000
v 0.470000 0.100000 0.800000
v 0.470000 0.100000 0.853797
v -0.470000 -0.100000 0.800000
v -0.470000 -0.100000 0.853797
v -0.470000 0.100000 0.853797
v -0.470000 0.100000 0.800000
v 0.470000 -0.100000 0.853797
vn -0.0000 -1.0000 -0.0000
vn -0.0000 1.0000 -0.0000
vn -0.0000 -0.0000 -1.0000
vn 1.0000 -0.0000 -0.0000
vn -0.0000 -0.0000 1.0000
vn -1.0000 -0.0000 -0.0000
vn -0.9982 -0.0593 -0.0000
vn -0.0593 0.9982 -0.0000
vn 0.9982 0.0593 -0.0000
vn 0.0593 -0.9982 -0.0000
vn -0.8191 -0.5736 -0.0000
vn -0.5736 0.8192 -0.0000
vn 0.8191 0.5736 -0.0000
vn 0.5736 -0.8192 -0.0000
vn 0.0592 -0.9982 -0.0000
vn 0.0594 -0.9982 -0.0000
vn -0.0592 0.9982 -0.0000
vn -0.0594 0.9982 -0.0000
vt 550.000000 0.000007
vt 552.000000 0.000006
vt 552.000000 100.000000
vt 550.000000 100.000000
vt -550.000000 100.000000
vt -552.000000 100.000000
vt -550.000000 0.000006
vt -552.000000 0.000007
vt 20.000000 102.000000
vt 0.000000 102.000000
vt 20.000000 100.000000
vt 0.000000 100.000000
vt 20.000002 100.000008
vt 0.000000 0.000006
vt 20.000000 0.000007
vt 0.000000 0.000000
vt 20.000002 0.000000
vt -0.000001 2.000000
vt 20.000000 2.000000
vt 0.000000 99.999992
vt -20.000000 99.999992
vt -20.000002 0.000000
vt 20.000000 99.999992
vt 3.000000 20.000000
vt 0.000000 20.000000
vt 3.000000 -0.000001
vt 0.000000 -0.000001
vt 3.000000 99.999992
vt 3.000000 0.000000
vt 3.000000 100.000000
vt 3.000000 0.000007
vt 0.000000 20.000002
vt 99.999992 20.000000
vt 99.999992 0.000000
vt -99.999992 20.000000
vt -99.999992 0.000000
vt -100.000000 0.000000
vt -81.437500 0.000000
vt -100.000000 2.000000
vt -87.625000 2.000000
vt -69.062500 2.000000
vt -62.875000 0.000000
vt -50.500000 0.000000
vt -50.500000 2.000000
vt 98.669022 18.944429
vt 0.000027 37.125000
vt 1.221048 18.214441
vt 0.000006 49.500000
vt 100.000000 49.500004
vt 0.000006 0.000000
vt 100.000000 0.000000
vt 0.000006 2.000000
vt 100.000000 2.000000
vt 98.746384 18.920311
vt -0.000358 37.125000
vt 1.397321 18.160561
vt 100.000000 49.500000
vt 81.437500 0.000000
vt 69.062500 2.000000
vt 50.500000 0.000000
vt 50.500000 2.000000
vt -95.536987 -97.608696
vt -93.833549 -98.656700
vt -67.895676 -56.496571
vt -69.599113 -55.448574
vt 0.000000 2.000000
vt 0.000000 0.000000
vt 0.000000 49.500004
vt 0.000000 0.000001
vt 99.999992 0.000000
vt 0.000000 2.000000
vt 0.000000 0.000000
vt 0.000000 -0.000001
vt 100.000000 0.000001
vt -0.000000 49.499996
vt 100.000000 49.499996
vt 93.833542 -98.656693
vt 95.536987 -97.608696
vt 67.895676 -56.496571
vt 69.599106 -55.448578
vt -42.000004 4.000000
vt -42.000004 0.000000
vt -12.599999 0.000000
vt -12.599999 4.000000
vt 0.000000 4.000000
vt 2.000000 42.000000
vt 0.000000 42.000000
vt 0.000000 29.400000
vt 2.000000 12.600000
vt 0.000000 -0.000003
vt 2.000000 0.000000
vt 2.000000 4.000000
vt 0.000000 42.000004
vt 2.000000 29.400000
vt 2.000000 12.599999
vt 0.000000 12.599999
vt 42.000000 4.000000
vt 29.400000 4.000000
vt 42.000000 0.000000
vt 29.400000 0.000000
vt 12.599999 4.000000
vt 0.000002 0.000000
vt -42.000004 80.000000
vt -42.000000 75.999992
vt -15.007255 76.000000
vt -21.000000 80.000000
vt 0.000000 80.000000
vt 0.000000 76.000000
vt 0.000000 26.992744
vt 0.000000 -0.000001
vt 0.000000 21.000000
vt 0.000000 -0.000000
vt 42.000000 80.000000
vt 29.400000 80.000000
vt 42.000000 76.000000
vt 29.400000 76.000000
vt 12.599999 80.000000
vt 12.599998 76.000000
vt -0.000000 80.000000
vt 0.000000 29.911856
vt 4.000000 -0.000001
vt 0.000000 29.911854
vt 4.000000 29.911854
vt 0.000000 -0.000002
vt 2.000000 29.911854
vt 2.000000 -0.000000
vt 0.000000 -0.000001
vt 2.000000 0.000002
vt 0.000000 0.000001
vt -4.000000 -0.000000
vt 0.000000 0.000000
vt -4.000000 29.911854
vt -73.999992 -0.000002
vt -70.000000 -0.000002
vt -70.000000 29.911856
vt -74.000000 29.911854
vt 0.000000 -0.000002
vt 2.000000 0.000001
vt 70.000000 -0.000000
vt 73.999992 0.000000
vt 70.000000 29.911854
vt 74.000000 29.911854
vt -0.000409 2.399596
vt 8.427913 2.284680
vt 8.469208 4.000000
vt 0.000493 1.606301
vt 0.000000 0.000000
vt 8.469207 0.000000
vt -0.001054 1.604415
vt -8.468570 1.602879
vt -8.469208 0.000000
vt 0.001650 2.401495
vt -0.000000 4.000000
vt -8.469528 2.395416
vt -8.469208 4.000000
vt 1.029346 8.469719
vt 0.000000 8.469208
vt 0.000000 0.000000
vt 1.007746 -0.000124
vt 2.000000 8.469208
vt 0.000000 2.263231
vt 0.698187 4.000000
vt 2.000000 2.395540
vt 1.029331 0.000000
vt 0.000000 0.000000
vt 2.000000 1.603141
vt 0.705042 8.438572
vt 0.708713 0.039656
vt 0.000000 2.393498
vt 1.007745 4.000000
vt 2.000000 2.395164
vt 0.000000 1.600245
vt 0.695116 0.000000
vt 2.000000 1.597940
vt 0.000000 4.000001
vt -8.469208 0.000001
vt 8.469208 0.000001
vt 5.000000 8.469208
vt 5.000000 0.000000
vt 5.000000 4.000000
vt 0.000000 0.000001
vt 5.000000 0.000001
vt 0.000000 -0.000001
vt 5.000000 -0.000002
vt -3.999999 0.000000
vt -4.000000 8.469208
vt 0.000000 8.469202
vt -0.000001 0.000000
vt 4.000000 0.000000
vt 3.999999 8.469209
vt 1.668212 0.000000
vt 1.668212 4.000001
vt 1.668212 8.469208
vt 1.668212 3.999999
vt -4.000000 -0.000012
vt 4.000000 8.469196
vt -0.000001 8.469208
vt 0.000000 -0.000012
vt 1.668212 4.000000
vt 1.668212 -0.000012
vt 1.668212 -0.000001
vt 0.000000 8.469219
vt 1.668212 0.000012
vt -20.000000 5.379651
vt 0.000001 5.379651
vt 20.000000 0.000000
vt 20.000002 5.379651
vt -0.000001 0.000000
vt 0.000000 5.379651
vt 94.000000 20.000002
vt 94.000000 0.000000
vt 94.000000 5.379651
s 0
usemtl Default_Wall.002
f 4/1/1 1/2/1 2/3/1
f 4/1/1 2/3/1 3/4/1
f 8/5/2 5/6/2 7/7/2
f 7/7/2 5/6/2 6/8/2
f 6/9/3 1/10/3 7/11/3
f 7/11/3 1/10/3 4/12/3
f 5/13/4 2/12/4 1/14/4
f 1/14/4 6/15/4 5/13/4
f 2/16/5 5/17/5 3/18/5
f 3/18/5 5/17/5 8/19/5
f 7/20/6 4/21/6 3/22/6
f 3/22/6 8/16/6 7/20/6
usemtl lintel.002
f 11/20/4 9/17/4 10/23/4
f 11/20/4 12/16/4 9/17/4
f 16/22/6 13/16/6 15/21/6
f 15/21/6 13/16/6 14/20/6
f 12/24/5 13/25/5 9/26/5
f 9/26/5 13/25/5 16/27/5
f 11/28/2 14/20/2 12/29/2
f 12/29/2 14/20/2 13/16/2
f 10/24/3 15/25/3 11/29/3
f 11/29/3 15/25/3 14/16/3
f 9/30/1 16/12/1 10/31/1
f 10/31/1 16/12/1 15/14/1
f 20/25/6 17/32/6 19/33/6
f 17/32/6 18/34/6 19/33/6
f 24/16/4 21/25/4 22/35/4
f 24/16/4 22/35/4 23/36/4
f 23/28/2 18/20/2 24/29/2
f 24/29/2 18/20/2 17/27/2
f 22/24/3 19/25/3 23/29/3
f 23/29/3 19/25/3 18/16/3
f 21/30/1 20/12/1 19/14/1
f 21/30/1 19/14/1 22/31/1
f 24/24/5 17/32/5 21/29/5
f 21/29/5 17/32/5 20/16/5
f 140/204/4 133/22/4 135/205/4
f 135/205/4 133/22/4 134/16/4
f 136/206/6 137/207/6 139/208/6
f 139/208/6 137/207/6 138/209/6
f 139/210/3 133/27/3 136/211/3
f 139/210/3 134/25/3 133/27/3
f 135/205/2 134/16/2 139/211/2
f 135/205/2 139/211/2 138/212/2
f 135/27/5 138/211/5 137/210/5
f 137/210/5 140/25/5 135/27/5
f 133/209/1 140/16/1 137/211/1
f 133/209/1 137/211/1 136/212/1
usemtl wood.001
f 25/37/3 26/38/3 37/39/3
f 37/39/3 26/38/3 29/40/3
f 29/40/3 26/38/3 28/41/3
f 28/41/3 26/38/3 27/42/3
f 28/41/3 27/42/3 32/43/3
f 28/41/3 32/43/3 35/44/3
f 33/45/7 27/46/7 26/47/7
f 32/48/7 27/46/7 31/49/7
f 25/50/7 30/51/7 26/47/7
f 26/47/7 30/51/7 33/45/7
f 27/46/7 33/45/7 31/49/7
f 35/52/8 32/50/8 31/51/8
f 35/52/8 31/51/8 34/53/8
f 38/54/9 29/55/9 28/56/9
f 37/48/9 29/55/9 36/57/9
f 35/50/9 34/51/9 28/56/9
f 28/56/9 34/51/9 38/54/9
f 29/55/9 38/54/9 36/57/9
f 25/52/10 37/50/10 30/53/10
f 30/53/10 37/50/10 36/51/10
f 30/51/5 36/53/5 33/58/5
f 33/58/5 36/53/5 38/59/5
f 33/58/5 38/59/5 31/60/5
f 31/60/5 38/59/5 34/61/5
f 39/62/3 42/63/3 44/64/3
f 39/62/3 44/64/3 46/65/3
f 42/66/11 39/67/11 40/51/11
f 42/66/11 40/51/11 41/53/11
f 44/68/12 42/69/12 41/70/12
f 44/68/12 41/70/12 43/57/12
f 46/71/13 44/72/13 43/51/13
f 46/71/13 43/51/13 45/53/13
f 46/73/14 45/74/14 39/75/14
f 39/75/14 45/74/14 40/76/14
f 41/77/5 40/78/5 43/79/5
f 43/79/5 40/78/5 45/80/5
usemtl metal.001
f 52/81/9 47/82/9 48/83/9
f 52/81/9 48/83/9 51/84/9
f 51/84/9 48/83/9 49/16/9
f 51/84/9 49/16/9 50/85/9
f 55/86/5 49/87/5 48/88/5
f 55/86/5 48/88/5 54/89/5
f 54/89/5 48/88/5 47/90/5
f 54/89/5 47/90/5 53/91/5
f 49/16/10 55/91/10 50/85/10
f 50/85/10 55/91/10 56/92/10
f 59/86/3 52/93/3 58/94/3
f 58/94/3 52/93/3 57/95/3
f 57/95/3 52/93/3 51/96/3
f 57/95/3 51/96/3 56/91/3
f 56/91/3 51/96/3 50/16/3
f 52/16/8 59/91/8 47/85/8
f 47/85/8 59/91/8 53/92/8
f 59/97/7 58/98/7 53/99/7
f 53/99/7 58/98/7 54/100/7
f 54/100/7 58/98/7 57/101/7
f 54/100/7 57/101/7 55/102/7
f 55/102/7 57/101/7 56/85/7
f 65/103/9 60/104/9 61/105/9
f 65/103/9 61/105/9 64/106/9
f 64/106/9 61/105/9 63/107/9
f 63/107/9 61/105/9 62/108/9
f 69/86/5 62/87/5 68/94/5
f 68/94/5 62/87/5 61/109/5
f 68/94/5 61/109/5 67/89/5
f 67/89/5 61/109/5 60/110/5
f 67/89/5 60/110/5 66/91/5
f 62/16/10 69/91/10 63/85/10
f 63/85/10 69/91/10 70/92/10
f 73/86/3 65/93/3 72/94/3
f 72/94/3 65/93/3 64/111/3
f 72/94/3 64/111/3 71/95/3
f 71/95/3 64/111/3 63/112/3
f 71/95/3 63/112/3 70/91/3
f 65/16/8 73/91/8 60/85/8
f 60/85/8 73/91/8 66/92/8
f 73/113/7 72/114/7 66/115/7
f 66/115/7 72/114/7 67/116/7
f 67/116/7 72/114/7 71/117/7
f 67/116/7 71/117/7 68/118/7
f 68/118/7 71/117/7 70/119/7
f 68/118/7 70/119/7 69/108/7
f 74/120/12 75/121/12 77/122/12
f 77/122/12 75/121/12 76/123/12
f 74/124/13 78/91/13 75/85/13
f 75/85/13 78/91/13 79/92/13
f 80/125/3 76/122/3 79/126/3
f 79/126/3 76/122/3 75/127/3
f 76/16/11 80/91/11 77/85/11
f 77/85/11 80/91/11 81/92/11
f 78/125/5 74/120/5 81/128/5
f 81/128/5 74/120/5 77/129/5
f 79/130/14 78/131/14 80/132/14
f 80/132/14 78/131/14 81/122/14
f 82/133/12 83/134/12 84/135/12
f 82/133/12 84/135/12 85/136/12
f 82/16/13 86/91/13 83/85/13
f 83/85/13 86/91/13 87/92/13
f 88/125/3 84/120/3 87/126/3
f 87/126/3 84/120/3 83/137/3
f 84/16/11 88/91/11 85/85/11
f 85/85/11 88/91/11 89/92/11
f 86/125/5 82/120/5 89/138/5
f 89/138/5 82/120/5 85/129/5
f 87/139/14 86/140/14 88/141/14
f 88/141/14 86/140/14 89/142/14
f 94/85/15 96/143/15 92/144/15
f 94/85/10 92/144/10 93/145/10
f 96/143/16 95/146/16 92/144/16
f 90/147/10 91/148/10 95/146/10
f 95/146/10 91/148/10 92/144/10
f 102/16/8 97/149/8 103/150/8
f 102/16/17 103/150/17 101/151/17
f 98/152/8 99/153/8 104/154/8
f 98/152/18 104/154/18 97/149/18
f 97/149/18 104/154/18 103/150/18
f 99/153/17 100/155/17 104/154/17
f 105/156/7 91/157/7 90/158/7
f 105/156/7 90/158/7 106/159/7
f 106/159/7 102/91/7 105/156/7
f 105/156/7 102/91/7 101/160/7
f 93/85/3 92/161/3 108/162/3
f 108/162/3 104/163/3 100/92/3
f 105/164/3 92/161/3 91/165/3
f 105/164/3 103/166/3 92/161/3
f 92/161/3 103/166/3 104/163/3
f 92/161/3 104/163/3 108/162/3
f 105/164/3 101/91/3 103/166/3
f 107/167/9 94/157/9 108/168/9
f 108/168/9 94/157/9 93/16/9
f 108/168/9 100/91/9 99/160/9
f 108/168/9 99/160/9 107/167/9
f 90/85/5 95/169/5 106/170/5
f 106/170/5 97/171/5 102/92/5
f 95/169/5 96/172/5 107/173/5
f 107/173/5 96/172/5 94/16/5
f 107/173/5 98/174/5 95/169/5
f 95/169/5 98/174/5 97/171/5
f 95/169/5 97/171/5 106/170/5
f 107/173/5 99/91/5 98/174/5
f 109/16/6 110/175/6 112/176/6
f 110/175/6 111/155/6 112/176/6
f 115/175/4 113/16/4 116/145/4
f 113/16/4 114/177/4 116/145/4
f 112/178/1 114/157/1 113/16/1
f 113/16/1 109/179/1 112/178/1
f 111/180/3 116/85/3 114/181/3
f 114/181/3 112/182/3 111/180/3
f 110/178/2 115/157/2 116/16/2
f 110/178/2 116/16/2 111/179/2
f 109/180/5 113/85/5 115/183/5
f 115/183/5 110/184/5 109/180/5
f 117/185/6 118/16/6 124/186/6
f 124/186/6 118/16/6 119/187/6
f 123/188/4 120/189/4 121/190/4
f 121/190/4 122/157/4 123/188/4
f 117/181/5 120/191/5 123/192/5
f 117/181/5 123/192/5 118/85/5
f 123/191/2 119/187/2 118/16/2
f 123/191/2 122/193/2 119/187/2
f 121/194/3 124/85/3 119/16/3
f 121/194/3 119/16/3 122/191/3
f 120/193/1 117/157/1 124/16/1
f 124/16/1 121/191/1 120/193/1
f 125/195/6 126/16/6 128/186/6
f 128/186/6 126/16/6 127/157/6
f 130/196/4 131/197/4 129/189/4
f 129/189/4 131/197/4 132/198/4
f 125/16/5 129/191/5 132/199/5
f 125/16/5 132/199/5 126/85/5
f 131/193/2 127/157/2 126/16/2
f 126/16/2 132/200/2 131/193/2
f 127/16/3 131/201/3 128/85/3
f 128/85/3 131/201/3 130/199/3
f 129/193/1 125/202/1 128/16/1
f 129/193/1 128/16/1 130/203/1
