# This file uses meters as units for non-parametric coordinates.

v 1751.144165 -3.565400 -3.618600
v 1751.144165 3.565400 -3.618600
v 1673.697876 3.565400 -3.618600
v 1673.697876 -3.565400 -3.618600
v 1673.697876 3.565400 -9.820700
v 1673.697876 -3.565400 -9.820700
v 1751.144165 3.565400 -9.820700
v 1751.144165 -3.565400 -9.820700
v 1705.637329 -38.723202 -3.618600
v 1719.204712 -38.723202 -3.618600
v 1719.204712 38.723202 -3.618600
v 1705.637329 38.723202 -3.618600
v 1719.204712 38.723202 -9.820700
v 1705.637329 38.723202 -9.820700
v 1719.204712 -38.723202 -9.820700
v 1705.637329 -38.723202 -9.820700
v 1719.522461 0.000000 -9.158600
v 1719.522461 0.000000 -2.936400
v 1751.327148 -31.804600 -2.936400
v 1751.327148 -31.804600 -9.158600
v 1712.421021 7.101500 -9.158600
v 1680.616455 38.906101 -9.158600
v 1680.616455 38.906101 -2.936400
v 1712.421021 7.101500 -2.936400
v 1705.319580 0.000000 -2.936400
v 1673.514893 31.804600 -2.936400
v 1673.514893 31.804600 -9.158600
v 1705.319580 0.000000 -9.158600
v 1712.421021 -7.101500 -2.936400
v 1712.421021 -7.101500 -9.158600
v 1744.225586 -38.906101 -9.158600
v 1744.225586 -38.906101 -2.936400
v 1751.124390 38.987801 -9.158600
v 1751.124390 38.987801 -2.936400
v 1751.327148 31.804600 -2.936400
v 1751.327148 31.804600 -9.158600
v 1744.225586 38.906101 -2.936400
v 1744.225586 38.906101 -9.158600
v 1715.909668 3.612800 -2.936400
v 1715.909668 3.612800 -9.158600
v 1673.540894 -38.949001 -2.936400
v 1673.540894 -38.949001 -9.158600
v 1680.616455 -38.906101 -9.158600
v 1680.616455 -38.906101 -2.936400
v 1708.824463 -3.504900 -9.158600
v 1708.824463 -3.504900 -2.936400
v 1751.369995 -38.880100 -2.936400
v 1715.925903 -3.596600 -2.936400
v 1708.808228 3.488700 -2.936400
v 1673.433228 38.703400 -2.936400
v 1673.514893 -31.804600 -9.158600
v 1673.514893 -31.804600 -2.936400
v 1751.369995 -38.880100 -9.158600
v 1715.925903 -3.596600 -9.158600
v 1708.808228 3.488700 -9.158600
v 1673.433228 38.703400 -9.158600
vt 0.000000 0.000000
vt 1.000000 0.000000
vt 1.000000 1.000000
vt 0.000000 1.000000
vt 1.000000 2.000000
vt 0.000000 2.000000
vt 1.000000 3.000000
vt 0.000000 3.000000
vt 1.000000 4.000000
vt 0.000000 4.000000
vt 2.000000 0.000000
vt 2.000000 1.000000
vt -1.000000 0.000000
vt -1.000000 1.000000
vt 0.000000 0.000000
vt 1.000000 0.000000
vt 1.000000 1.000000
vt 0.000000 1.000000
vt 1.000000 2.000000
vt 0.000000 2.000000
vt 1.000000 3.000000
vt 0.000000 3.000000
vt 1.000000 4.000000
vt 0.000000 4.000000
vt 2.000000 0.000000
vt 2.000000 1.000000
vt -1.000000 0.000000
vt -1.000000 1.000000
vt 2.000000 0.449785
vt 1.000000 0.449785
vt 1.000000 0.000000
vt 2.000000 0.000000
vt 2.000000 0.550215
vt 2.000000 1.000000
vt 1.000000 1.000000
vt 1.000000 0.550215
vt 0.000000 0.550215
vt 0.000000 1.000000
vt -1.000000 1.000000
vt -1.000000 0.550215
vt 0.000000 0.449785
vt -1.000000 0.449785
vt -1.000000 0.000000
vt 0.000000 0.000000
vt 0.542170 2.000000
vt 0.542170 1.000000
vt 1.000000 1.000000
vt 1.000000 2.000000
vt 0.000000 1.000000
vt 0.000000 2.000000
vt 0.000000 0.550215
vt 1.011482 0.499187
vt 0.542170 0.546106
vt 2.000000 0.550215
vt 2.000000 1.000000
vt 1.000000 0.550215
vt 1.000000 2.449785
vt 0.000000 2.449785
vt 0.542170 2.453894
vt 0.000000 0.550215
vt -1.000000 1.000000
vt -1.000000 0.550215
vt 0.542170 4.000000
vt 0.542170 3.000000
vt 1.000000 3.000000
vt 1.000000 4.000000
vt 1.000000 2.550215
vt 0.542170 2.545219
vt 0.542170 0.454780
vt 0.542170 0.000000
vt 1.000000 0.000000
vt 1.000000 0.449785
vt 5.140933 -0.004981
vt 1.000000 0.499351
vt 0.087901 0.545062
vt -4.497066 1.002413
vt -4.044676 0.913351
vt 0.086872 0.500299
vt -1.000000 0.449785
vt -1.000000 0.000000
vt 0.000000 0.000000
vt 0.000000 0.449785
vt 1.000000 0.449785
vt 2.000000 0.000000
vt 2.000000 0.449785
vt 0.000000 3.000000
vt 0.000000 4.000000
vt 0.000000 2.550215
vt 0.000000 0.449785
vt 0.542171 0.454780
vt 0.542170 4.000000
vt 0.542170 3.000000
vt 1.000000 3.000000
vt 1.000000 4.000000
vt 0.542170 2.545219
vt 0.542170 2.453894
vt 0.542170 2.000000
vt 1.000000 2.000000
vt 1.000000 2.449785
vt 1.010453 2.545576
vt 1.000000 2.550215
vt 0.542170 1.000000
vt 0.542170 0.546106
vt 0.542170 0.454781
vt 0.542170 0.000000
vt 1.009387 0.408071
vt 1.000000 0.500877
vt 1.011482 0.499187
vt 0.000000 3.000000
vt 0.000000 4.000000
vt 0.000000 2.000000
vt 0.542170 2.453894
vt 0.542170 2.545219
vt 0.000000 2.550215
vt 0.000000 2.499352
vt -0.011467 2.408059
vn 0.000000 0.000000 1.000000
vn 0.000000 0.000000 1.000000
vn 0.000000 0.000000 1.000000
vn 0.000000 0.000000 1.000000
vn -1.000000 0.000000 0.000000
vn -1.000000 0.000000 0.000000
vn -1.000000 0.000000 0.000000
vn -1.000000 0.000000 0.000000
vn 0.000000 0.000000 -1.000000
vn 0.000000 0.000000 -1.000000
vn 0.000000 0.000000 -1.000000
vn 0.000000 0.000000 -1.000000
vn 1.000000 0.000000 0.000000
vn 1.000000 0.000000 0.000000
vn 1.000000 0.000000 0.000000
vn 1.000000 0.000000 0.000000
vn 0.000000 1.000000 0.000000
vn 0.000000 1.000000 0.000000
vn 0.000000 1.000000 0.000000
vn 0.000000 1.000000 0.000000
vn 0.000000 -1.000000 0.000000
vn 0.000000 -1.000000 0.000000
vn 0.000000 -1.000000 0.000000
vn 0.000000 -1.000000 0.000000
vn 0.000000 0.000000 1.000000
vn 0.000000 0.000000 1.000000
vn 0.000000 0.000000 1.000000
vn 0.000000 0.000000 1.000000
vn 0.000000 1.000000 0.000000
vn 0.000000 1.000000 0.000000
vn 0.000000 1.000000 0.000000
vn 0.000000 1.000000 0.000000
vn 0.000000 0.000000 -1.000000
vn 0.000000 0.000000 -1.000000
vn 0.000000 0.000000 -1.000000
vn 0.000000 0.000000 -1.000000
vn 0.000000 -1.000000 0.000000
vn 0.000000 -1.000000 0.000000
vn 0.000000 -1.000000 0.000000
vn 0.000000 -1.000000 0.000000
vn 1.000000 0.000000 0.000000
vn 1.000000 0.000000 0.000000
vn 1.000000 0.000000 0.000000
vn 1.000000 0.000000 0.000000
vn -1.000000 0.000000 0.000000
vn -1.000000 0.000000 0.000000
vn -1.000000 0.000000 0.000000
vn -1.000000 0.000000 0.000000
vn 0.707106 0.707107 -0.000000
vn 0.707106 0.707107 -0.000000
vn 0.707106 0.707107 -0.000000
vn 0.707106 0.707107 -0.000000
vn 0.707107 0.707107 0.000000
vn 0.707107 0.707107 0.000000
vn 0.707107 0.707107 0.000000
vn 0.707107 0.707107 0.000000
vn -0.707107 -0.707107 0.000000
vn -0.707107 -0.707107 0.000000
vn -0.707107 -0.707107 0.000000
vn -0.707107 -0.707107 0.000000
vn -0.707107 -0.707107 0.000000
vn -0.707107 -0.707107 0.000000
vn -0.707107 -0.707107 0.000000
vn -0.707107 -0.707107 0.000000
vn 0.999602 0.028206 0.000000
vn 0.999602 0.028206 0.000000
vn 0.999602 0.028206 0.000000
vn 0.999602 0.028206 0.000000
vn -0.011841 0.999930 0.000000
vn -0.011841 0.999930 0.000000
vn -0.011841 0.999930 0.000000
vn -0.011841 0.999930 0.000000
vn 0.000000 0.000000 1.000000
vn 0.000000 0.000000 1.000000
vn 0.000000 0.000000 1.000000
vn 0.000000 0.000000 1.000000
vn 0.000000 0.000000 1.000000
vn 0.000000 0.000000 1.000000
vn 0.707107 -0.707107 0.000000
vn 0.707107 -0.707107 0.000000
vn 0.707107 -0.707107 0.000000
vn 0.707107 -0.707107 0.000000
vn 0.000000 0.000000 -1.000000
vn 0.000000 0.000000 -1.000000
vn 0.000000 0.000000 -1.000000
vn 0.000000 0.000000 -1.000000
vn 0.000000 0.000000 -1.000000
vn 0.000000 0.000000 -1.000000
vn -0.707107 0.707107 0.000000
vn -0.707107 0.707107 0.000000
vn -0.707107 0.707107 0.000000
vn -0.707107 0.707107 0.000000
vn 0.006067 -0.999982 0.000000
vn 0.006067 -0.999982 0.000000
vn 0.006067 -0.999982 0.000000
vn 0.006067 -0.999982 0.000000
vn 0.000000 0.000000 -1.000000
vn 0.000000 0.000000 -1.000000
vn 0.000000 0.000000 -1.000000
vn 0.000000 0.000000 -1.000000
vn 0.000000 0.000000 -1.000000
vn 0.000000 0.000000 -1.000000
vn 0.000000 0.000000 1.000000
vn 0.000000 0.000000 1.000000
vn 0.000000 0.000000 1.000000
vn 0.000000 0.000000 1.000000
vn 0.000000 0.000000 1.000000
vn 0.000000 0.000000 1.000000
vn 0.000000 0.000000 1.000000
vn 0.000000 0.000000 1.000000
vn 0.000000 0.000000 1.000000
vn 0.000000 0.000000 1.000000
vn 0.000000 0.000000 1.000000
vn 0.000000 0.000000 1.000000
vn 0.000000 0.000000 1.000000
vn 0.000000 0.000000 1.000000
vn 0.000000 0.000000 1.000000
vn 0.000000 0.000000 1.000000
vn 0.000000 0.000000 1.000000
vn 0.000000 0.000000 1.000000
vn -0.707107 0.707107 0.000000
vn -0.707107 0.707107 0.000000
vn -0.707107 0.707107 0.000000
vn -0.707107 0.707107 0.000000
vn 0.707107 -0.707107 0.000000
vn 0.707107 -0.707107 0.000000
vn 0.707107 -0.707107 0.000000
vn 0.707107 -0.707107 0.000000
vn -0.999993 -0.003642 0.000000
vn -0.999993 -0.003642 0.000000
vn -0.999993 -0.003642 0.000000
vn -0.999993 -0.003642 0.000000
vn 0.999982 0.006067 0.000000
vn 0.999982 0.006067 0.000000
vn 0.999982 0.006067 0.000000
vn 0.999982 0.006067 0.000000
vn 0.000000 0.000000 -1.000000
vn 0.000000 0.000000 -1.000000
vn 0.000000 0.000000 -1.000000
vn 0.000000 0.000000 -1.000000
vn 0.000000 0.000000 -1.000000
vn 0.000000 0.000000 -1.000000
vn 0.000000 0.000000 -1.000000
vn 0.000000 0.000000 -1.000000
vn 0.000000 0.000000 -1.000000
vn 0.000000 0.000000 -1.000000
vn 0.000000 0.000000 -1.000000
vn 0.000000 0.000000 -1.000000
vn 0.000000 0.000000 -1.000000
vn 0.000000 0.000000 -1.000000
vn -0.028206 0.999602 0.000000
vn -0.028206 0.999602 0.000000
vn -0.028206 0.999602 0.000000
vn -0.028206 0.999602 0.000000
vn 0.003642 -0.999993 0.000000
vn 0.003642 -0.999993 0.000000
vn 0.003642 -0.999993 0.000000
vn 0.003642 -0.999993 0.000000
vn -0.999930 -0.011841 0.000000
vn -0.999930 -0.011841 0.000000
vn -0.999930 -0.011841 0.000000
vn -0.999930 -0.011841 0.000000
g doorwindow
f 1/1/1 2/2/2 3/3/3 4/4/4
f 4/4/5 3/3/6 5/5/7 6/6/8
f 6/6/9 5/5/10 7/7/11 8/8/12
f 8/8/13 7/7/14 2/9/15 1/10/16
f 2/2/17 7/11/18 5/12/19 3/3/20
f 8/13/21 1/1/22 4/4/23 6/14/24
f 9/15/25 10/16/26 11/17/27 12/18/28
f 12/18/29 11/17/30 13/19/31 14/20/32
f 14/20/33 13/19/34 15/21/35 16/22/36
f 16/22/37 15/21/38 10/23/39 9/24/40
f 10/16/41 15/25/42 13/26/43 11/17/44
f 16/27/45 9/15/46 12/18/47 14/28/48
f 17/29/49 18/30/50 19/31/51 20/32/52
f 21/33/53 22/34/54 23/35/55 24/36/56
f 25/37/57 26/38/58 27/39/59 28/40/60
f 29/41/61 30/42/62 31/43/63 32/44/64
f 33/45/65 34/46/66 35/47/67 36/48/68
f 37/49/69 34/46/70 33/45/71 38/50/72
f 34/46/73 37/49/74 24/51/75 39/53/76 18/52/77 35/47/78
f 17/54/79 36/55/80 35/47/81 18/56/82
f 33/45/83 36/48/84 17/57/85 40/59/86 21/58/87 38/50/88
f 24/60/89 37/49/90 38/61/91 21/62/92
f 41/63/93 42/64/94 43/65/95 44/66/96
f 45/68/97 30/67/98 43/65/99 42/64/100 51/86/101 28/88/102
f 41/70/103 44/71/104 29/72/105 46/90/106 25/89/107 52/81/108
f 48/74/109 29/72/105 32/73/110 47/105/111 19/31/112 18/106/113
f 50/76/114 26/77/115 25/78/116 49/103/117 24/108/118 23/35/119
f 39/107/120 24/108/118 49/75/117 25/78/116 46/69/106 29/72/105 48/104/109 18/106/113
f 28/79/121 51/80/122 52/81/123 25/82/124
f 29/83/125 44/71/126 43/84/127 30/85/128
f 51/86/129 42/64/130 41/63/131 52/87/132
f 47/91/133 53/92/134 20/93/135 19/94/136
f 54/95/137 17/101/138 20/93/139 53/92/140 31/109/141 30/114/142
f 56/97/143 22/98/144 21/99/145 55/112/146 28/116/147 27/111/148
f 54/113/137 30/114/142 45/115/149 28/116/147 55/96/146 21/99/145 40/100/150 17/101/138
f 56/97/151 50/102/152 23/35/153 22/98/154
f 31/109/155 53/92/156 47/91/157 32/110/158
f 26/38/159 50/102/160 56/97/161 27/111/162
