# Rhino

o object_1
v 6 1 0
v 6 19 0
v 6 1 -2
v 6 19 -2
v 7 1 0
v 7 19 0
v 7 1 -2
v 7 19 -2
vt 0 0
vt 1 0
vt 0 1
vt 1 1
vt 0 0
vt 1 0
vt 0 1
vt 1 1
vt 0 0
vt 1 0
vt 0 1
vt 1 1
vt 0 0
vt 1 0
vt 0 1
vt 1 1
vt 0 0
vt 1 0
vt 0 1
vt 1 1
vt 0 0
vt 1 0
vt 0 1
vt 1 1
vn 0 1 0
vn 0 1 0
vn 0 1 0
vn 0 1 0
vn 0 -1 0
vn 0 -1 0
vn 0 -1 0
vn 0 -1 0
vn 0 0 1
vn 0 0 1
vn 0 0 1
vn 0 0 1
vn 1 0 0
vn 1 0 0
vn 1 0 0
vn 1 0 0
vn 0 0 -1
vn 0 0 -1
vn 0 0 -1
vn 0 0 -1
vn -1 0 0
vn -1 0 0
vn -1 0 0
vn -1 0 0
f 4/1/1 2/3/3 6/4/4 8/2/2
f 1/5/5 3/7/7 7/8/8 5/6/6
f 2/9/9 1/11/11 5/12/12 6/10/10
f 6/13/13 5/15/15 7/16/16 8/14/14
f 8/17/17 7/19/19 3/20/20 4/18/18
f 4/21/21 3/23/23 1/24/24 2/22/22
o object_2
v 12 1 0
v 12 19 0
v 12 1 -2
v 12 19 -2
v 13 1 0
v 13 19 0
v 13 1 -2
v 13 19 -2
vt 0 0
vt 1 0
vt 0 1
vt 1 1
vt 0 0
vt 1 0
vt 0 1
vt 1 1
vt 0 0
vt 1 0
vt 0 1
vt 1 1
vt 0 0
vt 1 0
vt 0 1
vt 1 1
vt 0 0
vt 1 0
vt 0 1
vt 1 1
vt 0 0
vt 1 0
vt 0 1
vt 1 1
vn 0 1 0
vn 0 1 0
vn 0 1 0
vn 0 1 0
vn 0 -1 0
vn 0 -1 0
vn 0 -1 0
vn 0 -1 0
vn 0 0 1
vn 0 0 1
vn 0 0 1
vn 0 0 1
vn 1 0 0
vn 1 0 0
vn 1 0 0
vn 1 0 0
vn 0 0 -1
vn 0 0 -1
vn 0 0 -1
vn 0 0 -1
vn -1 0 0
vn -1 0 0
vn -1 0 0
vn -1 0 0
f 12/25/25 10/27/27 14/28/28 16/26/26
f 9/29/29 11/31/31 15/32/32 13/30/30
f 10/33/33 9/35/35 13/36/36 14/34/34
f 14/37/37 13/39/39 15/40/40 16/38/38
f 16/41/41 15/43/43 11/44/44 12/42/42
f 12/45/45 11/47/47 9/48/48 10/46/46
o object_3
v 18.05263137817383 0 0
v 18.05263137817383 20 0
v 18.05263137817383 0 -2
v 18.05263137817383 20 -2
v 19 0 0
v 19 20 0
v 19 0 -2
v 19 20 -2
vt 0 0
vt 1 0
vt 0 1
vt 1 1
vt 0 0
vt 1 0
vt 0 1
vt 1 1
vt 0 0
vt 1 0
vt 0 1
vt 1 1
vt 0 0
vt 1 0
vt 0 1
vt 1 1
vt 0 0
vt 1 0
vt 0 1
vt 1 1
vt 0 0
vt 1 0
vt 0 1
vt 1 1
vn 0 -1 0
vn 0 -1 0
vn 0 -1 0
vn 0 -1 0
vn 0 1 0
vn 0 1 0
vn 0 1 0
vn 0 1 0
vn 0 0 1
vn 0 0 1
vn 0 0 1
vn 0 0 1
vn 1 0 0
vn 1 0 0
vn 1 0 0
vn 1 0 0
vn 0 0 -1
vn 0 0 -1
vn 0 0 -1
vn 0 0 -1
vn -1 0 0
vn -1 0 0
vn -1 0 0
vn -1 0 0
f 19/49/49 23/50/50 21/52/52 17/51/51
f 18/53/53 22/54/54 24/56/56 20/55/55
f 17/57/57 21/58/58 22/60/60 18/59/59
f 21/61/61 23/62/62 24/64/64 22/63/63
f 23/65/65 19/66/66 20/68/68 24/67/67
f 19/69/69 17/70/70 18/72/72 20/71/71
o object_4
v 1 19 0
v 1 20 0
v 1 19 -2
v 1 20 -2
v 18.05263137817383 19 0
v 18.05263137817383 20 0
v 18.05263137817383 19 -2
v 18.05263137817383 20 -2
vt 0 0
vt 1 0
vt 0 1
vt 1 1
vt 0 0
vt 1 0
vt 0 1
vt 1 1
vt 0 0
vt 1 0
vt 0 1
vt 1 1
vt 0 0
vt 1 0
vt 0 1
vt 1 1
vt 0 0
vt 1 0
vt 0 1
vt 1 1
vt 0 0
vt 1 0
vt 0 1
vt 1 1
vn 0 1 0
vn 0 1 0
vn 0 1 0
vn 0 1 0
vn 0 -1 0
vn 0 -1 0
vn 0 -1 0
vn 0 -1 0
vn 0 0 1
vn 0 0 1
vn 0 0 1
vn 0 0 1
vn 1 0 0
vn 1 0 0
vn 1 0 0
vn 1 0 0
vn 0 0 -1
vn 0 0 -1
vn 0 0 -1
vn 0 0 -1
vn -1 0 0
vn -1 0 0
vn -1 0 0
vn -1 0 0
f 28/73/73 26/75/75 30/76/76 32/74/74
f 25/77/77 27/79/79 31/80/80 29/78/78
f 26/81/81 25/83/83 29/84/84 30/82/82
f 30/85/85 29/87/87 31/88/88 32/86/86
f 32/89/89 31/91/91 27/92/92 28/90/90
f 28/93/93 27/95/95 25/96/96 26/94/94
o object_5
v 1 0 0
v 1 1 0
v 1 0 -2
v 1 1 -2
v 18.05263137817383 0 0
v 18.05263137817383 1 0
v 18.05263137817383 0 -2
v 18.05263137817383 1 -2
vt 0 0
vt 1 0
vt 0 1
vt 1 1
vt 0 0
vt 1 0
vt 0 1
vt 1 1
vt 0 0
vt 1 0
vt 0 1
vt 1 1
vt 0 0
vt 1 0
vt 0 1
vt 1 1
vt 0 0
vt 1 0
vt 0 1
vt 1 1
vt 0 0
vt 1 0
vt 0 1
vt 1 1
vn 0 1 0
vn 0 1 0
vn 0 1 0
vn 0 1 0
vn 0 -1 0
vn 0 -1 0
vn 0 -1 0
vn 0 -1 0
vn 0 0 1
vn 0 0 1
vn 0 0 1
vn 0 0 1
vn 1 0 0
vn 1 0 0
vn 1 0 0
vn 1 0 0
vn 0 0 -1
vn 0 0 -1
vn 0 0 -1
vn 0 0 -1
vn -1 0 0
vn -1 0 0
vn -1 0 0
vn -1 0 0
f 36/97/97 34/99/99 38/100/100 40/98/98
f 33/101/101 35/103/103 39/104/104 37/102/102
f 34/105/105 33/107/107 37/108/108 38/106/106
f 38/109/109 37/111/111 39/112/112 40/110/110
f 40/113/113 39/115/115 35/116/116 36/114/114
f 36/117/117 35/119/119 33/120/120 34/118/118
o object_6
v 15 1 0
v 15 19 0
v 15 1 -2
v 15 19 -2
v 16 1 0
v 16 19 0
v 16 1 -2
v 16 19 -2
vt 0 0
vt 1 0
vt 0 1
vt 1 1
vt 0 0
vt 1 0
vt 0 1
vt 1 1
vt 0 0
vt 1 0
vt 0 1
vt 1 1
vt 0 0
vt 1 0
vt 0 1
vt 1 1
vt 0 0
vt 1 0
vt 0 1
vt 1 1
vt 0 0
vt 1 0
vt 0 1
vt 1 1
vn 0 1 0
vn 0 1 0
vn 0 1 0
vn 0 1 0
vn 0 -1 0
vn 0 -1 0
vn 0 -1 0
vn 0 -1 0
vn 0 0 1
vn 0 0 1
vn 0 0 1
vn 0 0 1
vn 1 0 0
vn 1 0 0
vn 1 0 0
vn 1 0 0
vn 0 0 -1
vn 0 0 -1
vn 0 0 -1
vn 0 0 -1
vn -1 0 0
vn -1 0 0
vn -1 0 0
vn -1 0 0
f 44/121/121 42/123/123 46/124/124 48/122/122
f 41/125/125 43/127/127 47/128/128 45/126/126
f 42/129/129 41/131/131 45/132/132 46/130/130
f 46/133/133 45/135/135 47/136/136 48/134/134
f 48/137/137 47/139/139 43/140/140 44/138/138
f 44/141/141 43/143/143 41/144/144 42/142/142
o object_7
v 9 1 0
v 9 19 0
v 9 1 -2
v 9 19 -2
v 10 1 0
v 10 19 0
v 10 1 -2
v 10 19 -2
vt 0 0
vt 1 0
vt 0 1
vt 1 1
vt 0 0
vt 1 0
vt 0 1
vt 1 1
vt 0 0
vt 1 0
vt 0 1
vt 1 1
vt 0 0
vt 1 0
vt 0 1
vt 1 1
vt 0 0
vt 1 0
vt 0 1
vt 1 1
vt 0 0
vt 1 0
vt 0 1
vt 1 1
vn 0 1 0
vn 0 1 0
vn 0 1 0
vn 0 1 0
vn 0 -1 0
vn 0 -1 0
vn 0 -1 0
vn 0 -1 0
vn 0 0 1
vn 0 0 1
vn 0 0 1
vn 0 0 1
vn 1 0 0
vn 1 0 0
vn 1 0 0
vn 1 0 0
vn 0 0 -1
vn 0 0 -1
vn 0 0 -1
vn 0 0 -1
vn -1 0 0
vn -1 0 0
vn -1 0 0
vn -1 0 0
f 52/145/145 50/147/147 54/148/148 56/146/146
f 49/149/149 51/151/151 55/152/152 53/150/150
f 50/153/153 49/155/155 53/156/156 54/154/154
f 54/157/157 53/159/159 55/160/160 56/158/158
f 56/161/161 55/163/163 51/164/164 52/162/162
f 52/165/165 51/167/167 49/168/168 50/166/166
o object_8
v 3 1 0
v 3 19 0
v 3 1 -2
v 3 19 -2
v 4 1 0
v 4 19 0
v 4 1 -2
v 4 19 -2
vt 0 0
vt 1 0
vt 0 1
vt 1 1
vt 0 0
vt 1 0
vt 0 1
vt 1 1
vt 0 0
vt 1 0
vt 0 1
vt 1 1
vt 0 0
vt 1 0
vt 0 1
vt 1 1
vt 0 0
vt 1 0
vt 0 1
vt 1 1
vt 0 0
vt 1 0
vt 0 1
vt 1 1
vn 0 1 0
vn 0 1 0
vn 0 1 0
vn 0 1 0
vn 0 -1 0
vn 0 -1 0
vn 0 -1 0
vn 0 -1 0
vn 0 0 1
vn 0 0 1
vn 0 0 1
vn 0 0 1
vn 1 0 0
vn 1 0 0
vn 1 0 0
vn 1 0 0
vn 0 0 -1
vn 0 0 -1
vn 0 0 -1
vn 0 0 -1
vn -1 0 0
vn -1 0 0
vn -1 0 0
vn -1 0 0
f 60/169/169 58/171/171 62/172/172 64/170/170
f 57/173/173 59/175/175 63/176/176 61/174/174
f 58/177/177 57/179/179 61/180/180 62/178/178
f 62/181/181 61/183/183 63/184/184 64/182/182
f 64/185/185 63/187/187 59/188/188 60/186/186
f 60/189/189 59/191/191 57/192/192 58/190/190
o object_9
v 0 0 0
v 0 20 0
v 0 0 -2
v 0 20 -2
v 1 0 0
v 1 20 0
v 1 0 -2
v 1 20 -2
vt 0 0
vt 1 0
vt 0 1
vt 1 1
vt 0 0
vt 1 0
vt 0 1
vt 1 1
vt 0 0
vt 1 0
vt 0 1
vt 1 1
vt 0 0
vt 1 0
vt 0 1
vt 1 1
vt 0 0
vt 1 0
vt 0 1
vt 1 1
vt 0 0
vt 1 0
vt 0 1
vt 1 1
vn 0 -1 0
vn 0 -1 0
vn 0 -1 0
vn 0 -1 0
vn 0 1 0
vn 0 1 0
vn 0 1 0
vn 0 1 0
vn 0 0 1
vn 0 0 1
vn 0 0 1
vn 0 0 1
vn 1 0 0
vn 1 0 0
vn 1 0 0
vn 1 0 0
vn 0 0 -1
vn 0 0 -1
vn 0 0 -1
vn 0 0 -1
vn -1 0 0
vn -1 0 0
vn -1 0 0
vn -1 0 0
f 67/193/193 71/194/194 69/196/196 65/195/195
f 66/197/197 70/198/198 72/200/200 68/199/199
f 65/201/201 69/202/202 70/204/204 66/203/203
f 69/205/205 71/206/206 72/208/208 70/207/207
f 71/209/209 67/210/210 68/212/212 72/211/211
f 67/213/213 65/214/214 66/216/216 68/215/215
