# Rhino

o object_1
v -0.02530403435230255 0.97403883934021 0
v -0.02530403435230255 0.97403883934021 -2
v 1 0 0
v 1 0 -2
v 17.88218116760254 19.82402420043945 0
v 17.88218116760254 19.82402420043945 -2
v 18.90748596191406 18.84998512268066 0
v 18.90748596191406 18.84998512268066 -2
vt 0 0
vt 1 0
vt 0 1
vt 1 1
vt 0 0
vt 1 0
vt 0 1
vt 1 1
vt 0 0
vt 1 0
vt 0 1
vt 1 1
vt 0 0
vt 1 0
vt 0 1
vt 1 1
vt 0 0
vt 1 0
vt 0 1
vt 1 1
vt 0 0
vt 1 0
vt 0 1
vt 1 1
vn -0.6887494325637817 -0.7249994277954102 0
vn -0.6887494325637817 -0.7249994277954102 0
vn -0.6887494325637817 -0.7249994277954102 0
vn -0.6887494325637817 -0.7249994277954102 0
vn 0.6887494325637817 0.7249994277954102 0
vn 0.6887494325637817 0.7249994277954102 0
vn 0.6887494325637817 0.7249994277954102 0
vn 0.6887494325637817 0.7249994277954102 0
vn -0.7249994277954102 0.6887494325637817 0
vn -0.7249994277954102 0.6887494325637817 0
vn -0.7249994277954102 0.6887494325637817 0
vn -0.7249994277954102 0.6887494325637817 0
vn 0 0 -1
vn 0 0 -1
vn 0 0 -1
vn 0 0 -1
vn 0.7249994277954102 -0.6887494325637817 0
vn 0.7249994277954102 -0.6887494325637817 0
vn 0.7249994277954102 -0.6887494325637817 0
vn 0.7249994277954102 -0.6887494325637817 0
vn 0 0 1
vn 0 0 1
vn 0 0 1
vn 0 0 1
f 3/1/1 1/3/3 2/4/4 4/2/2
f 5/5/5 7/7/7 8/8/8 6/6/6
f 1/9/9 5/11/11 6/12/12 2/10/10
f 2/13/13 6/15/15 8/16/16 4/14/14
f 4/17/17 8/19/19 7/20/20 3/18/18
f 3/21/21 7/23/23 5/24/24 1/22/22
o object_2
v 18.05263137817383 0 0
v 18.05263137817383 20 0
v 18.05263137817383 0 -2
v 18.05263137817383 20 -2
v 19 0 0
v 19 20 0
v 19 0 -2
v 19 20 -2
vt 0 0
vt 1 0
vt 0 1
vt 1 1
vt 0 0
vt 1 0
vt 0 1
vt 1 1
vt 0 0
vt 1 0
vt 0 1
vt 1 1
vt 0 0
vt 1 0
vt 0 1
vt 1 1
vt 0 0
vt 1 0
vt 0 1
vt 1 1
vt 0 0
vt 1 0
vt 0 1
vt 1 1
vn 0 -1 0
vn 0 -1 0
vn 0 -1 0
vn 0 -1 0
vn 0 1 0
vn 0 1 0
vn 0 1 0
vn 0 1 0
vn 0 0 1
vn 0 0 1
vn 0 0 1
vn 0 0 1
vn 1 0 0
vn 1 0 0
vn 1 0 0
vn 1 0 0
vn 0 0 -1
vn 0 0 -1
vn 0 0 -1
vn 0 0 -1
vn -1 0 0
vn -1 0 0
vn -1 0 0
vn -1 0 0
f 11/25/25 15/26/26 13/28/28 9/27/27
f 10/29/29 14/30/30 16/32/32 12/31/31
f 9/33/33 13/34/34 14/36/36 10/35/35
f 13/37/37 15/38/38 16/40/40 14/39/39
f 15/41/41 11/42/42 12/44/44 16/43/43
f 11/45/45 9/46/46 10/48/48 12/47/47
o object_3
v 1 19 0
v 1 20 0
v 1 19 -2
v 1 20 -2
v 18.05263137817383 19 0
v 18.05263137817383 20 0
v 18.05263137817383 19 -2
v 18.05263137817383 20 -2
vt 0 0
vt 1 0
vt 0 1
vt 1 1
vt 0 0
vt 1 0
vt 0 1
vt 1 1
vt 0 0
vt 1 0
vt 0 1
vt 1 1
vt 0 0
vt 1 0
vt 0 1
vt 1 1
vt 0 0
vt 1 0
vt 0 1
vt 1 1
vt 0 0
vt 1 0
vt 0 1
vt 1 1
vn 0 1 0
vn 0 1 0
vn 0 1 0
vn 0 1 0
vn 0 -1 0
vn 0 -1 0
vn 0 -1 0
vn 0 -1 0
vn 0 0 1
vn 0 0 1
vn 0 0 1
vn 0 0 1
vn 1 0 0
vn 1 0 0
vn 1 0 0
vn 1 0 0
vn 0 0 -1
vn 0 0 -1
vn 0 0 -1
vn 0 0 -1
vn -1 0 0
vn -1 0 0
vn -1 0 0
vn -1 0 0
f 20/49/49 18/51/51 22/52/52 24/50/50
f 17/53/53 19/55/55 23/56/56 21/54/54
f 18/57/57 17/59/59 21/60/60 22/58/58
f 22/61/61 21/63/63 23/64/64 24/62/62
f 24/65/65 23/67/67 19/68/68 20/66/66
f 20/69/69 19/71/71 17/72/72 18/70/70
o object_4
v 1 0 0
v 1 1 0
v 1 0 -2
v 1 1 -2
v 18.05263137817383 0 0
v 18.05263137817383 1 0
v 18.05263137817383 0 -2
v 18.05263137817383 1 -2
vt 0 0
vt 1 0
vt 0 1
vt 1 1
vt 0 0
vt 1 0
vt 0 1
vt 1 1
vt 0 0
vt 1 0
vt 0 1
vt 1 1
vt 0 0
vt 1 0
vt 0 1
vt 1 1
vt 0 0
vt 1 0
vt 0 1
vt 1 1
vt 0 0
vt 1 0
vt 0 1
vt 1 1
vn 0 1 0
vn 0 1 0
vn 0 1 0
vn 0 1 0
vn 0 -1 0
vn 0 -1 0
vn 0 -1 0
vn 0 -1 0
vn 0 0 1
vn 0 0 1
vn 0 0 1
vn 0 0 1
vn 1 0 0
vn 1 0 0
vn 1 0 0
vn 1 0 0
vn 0 0 -1
vn 0 0 -1
vn 0 0 -1
vn 0 0 -1
vn -1 0 0
vn -1 0 0
vn -1 0 0
vn -1 0 0
f 28/73/73 26/75/75 30/76/76 32/74/74
f 25/77/77 27/79/79 31/80/80 29/78/78
f 26/81/81 25/83/83 29/84/84 30/82/82
f 30/85/85 29/87/87 31/88/88 32/86/86
f 32/89/89 31/91/91 27/92/92 28/90/90
f 28/93/93 27/95/95 25/96/96 26/94/94
o object_5
v 0 0 0
v 0 20 0
v 0 0 -2
v 0 20 -2
v 1 0 0
v 1 20 0
v 1 0 -2
v 1 20 -2
vt 0 0
vt 1 0
vt 0 1
vt 1 1
vt 0 0
vt 1 0
vt 0 1
vt 1 1
vt 0 0
vt 1 0
vt 0 1
vt 1 1
vt 0 0
vt 1 0
vt 0 1
vt 1 1
vt 0 0
vt 1 0
vt 0 1
vt 1 1
vt 0 0
vt 1 0
vt 0 1
vt 1 1
vn 0 -1 0
vn 0 -1 0
vn 0 -1 0
vn 0 -1 0
vn 0 1 0
vn 0 1 0
vn 0 1 0
vn 0 1 0
vn 0 0 1
vn 0 0 1
vn 0 0 1
vn 0 0 1
vn 1 0 0
vn 1 0 0
vn 1 0 0
vn 1 0 0
vn 0 0 -1
vn 0 0 -1
vn 0 0 -1
vn 0 0 -1
vn -1 0 0
vn -1 0 0
vn -1 0 0
vn -1 0 0
f 35/97/97 39/98/98 37/100/100 33/99/99
f 34/101/101 38/102/102 40/104/104 36/103/103
f 33/105/105 37/106/106 38/108/108 34/107/107
f 37/109/109 39/110/110 40/112/112 38/111/111
f 39/113/113 35/114/114 36/116/116 40/115/115
f 35/117/117 33/118/118 34/120/120 36/119/119
