# This file uses meters as units for non-parametric coordinates.

v 322.196167 0.318874 90.242157
v 322.196167 0.118874 90.042160
v 322.396179 0.318874 90.042160
v 322.196167 0.118874 -90.042160
v 322.196167 0.318874 -90.242157
v 322.396179 0.318874 -90.042160
v 322.196167 138.780823 90.042160
v 322.196167 138.580826 90.242157
v 322.396179 138.580826 90.042160
v 322.196167 138.580826 -90.242157
v 322.196167 138.780823 -90.042160
v 322.396179 138.580826 -90.042160
v -90.242157 138.580826 90.042160
v -90.042160 138.580826 90.242157
v -90.042160 138.780823 90.042160
v -90.042160 138.580826 -90.242157
v -90.242157 138.580826 -90.042160
v -90.042160 138.780823 -90.042160
v -90.042160 0.118874 90.042160
v -90.042160 0.318874 90.242157
v -90.242157 0.318874 90.042160
v -90.042160 0.318874 -90.242157
v -90.042160 0.118874 -90.042160
v -90.242157 0.318874 -90.042160
vn 0.000000 -1.000000 0.000000
vn 0.000000 -1.000000 0.000000
vn 0.000000 -1.000000 0.000000
vn 0.000000 -1.000000 0.000000
vn 1.000000 0.000000 -0.000000
vn 1.000000 0.000000 -0.000000
vn 1.000000 0.000000 -0.000000
vn 1.000000 0.000000 -0.000000
vn -0.000000 -0.000000 1.000000
vn -0.000000 -0.000000 1.000000
vn -0.000000 -0.000000 1.000000
vn -0.000000 -0.000000 1.000000
vn 0.000000 -0.000000 -1.000000
vn 0.000000 -0.000000 -1.000000
vn 0.000000 -0.000000 -1.000000
vn 0.000000 -0.000000 -1.000000
vn -0.000000 1.000000 -0.000000
vn -0.000000 1.000000 -0.000000
vn -0.000000 1.000000 -0.000000
vn -0.000000 1.000000 -0.000000
vn -1.000000 0.000000 -0.000000
vn -1.000000 0.000000 -0.000000
vn -1.000000 0.000000 -0.000000
vn -1.000000 0.000000 -0.000000
vn -0.000000 -0.707108 0.707106
vn -0.000000 -0.707108 0.707106
vn -0.000000 -0.707108 0.707106
vn -0.000000 -0.707108 0.707106
vn 0.707085 -0.707128 0.000000
vn 0.707085 -0.707128 0.000000
vn 0.707085 -0.707128 0.000000
vn 0.707085 -0.707128 0.000000
vn 0.707081 -0.000000 0.707132
vn 0.707081 -0.000000 0.707132
vn 0.707081 -0.000000 0.707132
vn 0.707081 -0.000000 0.707132
vn -0.000000 -0.707107 -0.707107
vn -0.000000 -0.707107 -0.707107
vn -0.000000 -0.707107 -0.707107
vn -0.000000 -0.707107 -0.707107
vn 0.707100 -0.000000 -0.707113
vn 0.707100 -0.000000 -0.707113
vn 0.707100 -0.000000 -0.707113
vn 0.707100 -0.000000 -0.707113
vn -0.000000 0.707112 0.707101
vn -0.000000 0.707112 0.707101
vn -0.000000 0.707112 0.707101
vn -0.000000 0.707112 0.707101
vn 0.707074 0.707139 -0.000000
vn 0.707074 0.707139 -0.000000
vn 0.707074 0.707139 -0.000000
vn 0.707074 0.707139 -0.000000
vn -0.000000 0.707113 -0.707100
vn -0.000000 0.707113 -0.707100
vn -0.000000 0.707113 -0.707100
vn -0.000000 0.707113 -0.707100
vn -0.707109 0.000000 0.707105
vn -0.707109 0.000000 0.707105
vn -0.707109 0.000000 0.707105
vn -0.707109 0.000000 0.707105
vn -0.707106 0.707108 0.000000
vn -0.707106 0.707108 0.000000
vn -0.707106 0.707108 0.000000
vn -0.707106 0.707108 0.000000
vn -0.707112 0.000000 -0.707101
vn -0.707112 0.000000 -0.707101
vn -0.707112 0.000000 -0.707101
vn -0.707112 0.000000 -0.707101
vn -0.707112 -0.707101 -0.000000
vn -0.707112 -0.707101 -0.000000
vn -0.707112 -0.707101 -0.000000
vn -0.707112 -0.707101 -0.000000
vn 0.577346 -0.577381 0.577323
vn 0.577346 -0.577381 0.577323
vn 0.577346 -0.577381 0.577323
vn 0.577346 -0.577381 -0.577323
vn 0.577346 -0.577381 -0.577323
vn 0.577346 -0.577381 -0.577323
vn 0.577315 0.577332 0.577403
vn 0.577315 0.577332 0.577403
vn 0.577315 0.577332 0.577403
vn 0.577315 0.577332 -0.577403
vn 0.577315 0.577332 -0.577403
vn 0.577315 0.577332 -0.577403
vn -0.577356 0.577343 0.577352
vn -0.577356 0.577343 0.577352
vn -0.577356 0.577343 0.577352
vn -0.577356 0.577343 -0.577352
vn -0.577356 0.577343 -0.577352
vn -0.577356 0.577343 -0.577352
vn -0.577349 -0.577340 0.577362
vn -0.577349 -0.577340 0.577362
vn -0.577349 -0.577340 0.577362
vn -0.577349 -0.577340 -0.577362
vn -0.577349 -0.577340 -0.577362
vn -0.577349 -0.577340 -0.577362
g architrave
f 19//1 23//2 4//3 2//4
f 6//5 12//6 9//7 3//8
f 8//9 14//10 20//11 1//12
f 22//13 16//14 10//15 5//16
f 11//17 18//18 15//19 7//20
f 17//21 24//22 21//23 13//24
f 2//25 1//26 20//27 19//28
f 3//29 2//30 4//31 6//32
f 1//33 3//34 9//35 8//36
f 5//37 4//38 23//39 22//40
f 6//41 5//42 10//43 12//44
f 8//45 7//46 15//47 14//48
f 7//49 9//50 12//51 11//52
f 11//53 10//54 16//55 18//56
f 14//57 13//58 21//59 20//60
f 13//61 15//62 18//63 17//64
f 17//65 16//66 22//67 24//68
f 19//69 21//70 24//71 23//72
f 1//73 2//74 3//75
f 4//76 5//77 6//78
f 7//79 8//80 9//81
f 10//82 11//83 12//84
f 13//85 14//86 15//87
f 16//88 17//89 18//90
f 19//91 20//92 21//93
f 22//94 23//95 24//96
