# Rhino

o object_1
v 898.5215454101563 426.8356323242188 163.7869720458984
v 898.5215454101563 426.8356323242188 159.0792388916016
v 1063.727416992188 426.8356323242188 163.7869720458984
v 1063.727416992188 426.8356323242188 159.0792388916016
vt 0 0
vt 1 0
vt 0 1
vt 1 1
vn 0 -1 0
vn 0 -1 0
vn 0 -1 0
vn 0 -1 0
f 1/1/1 2/3/3 4/4/4 3/2/2
o object_2
v 898.5215454101563 465.3198852539063 159.0792388916016
v 898.521554 465.319873 181.101175
v 1063.727416992188 465.3198852539063 181.101175
v 1063.727416992188 465.3198852539063 159.0792388916016
vt 0 0
vt 1 0
vt 1 1
vt 0 1
vn -7.417355618599686e-08 1 5.564409661928949e-07
vn 0 1 5.56440909349476e-07
vn 0 1 0
vn -7.417355618599686e-08 1 0
f 6/5/5 7/8/8 8/7/7 5/6/6
o object_3
v 898.521554 448.588977 175.953195
v 898.521554 433.368641 161.903665
v 1063.727426 448.588977 175.953195
v 1063.727426 433.368641 161.903665
vt 0 0
vt 1 0
vt 1 1
vt 0 1
vn 0 -0.6782798171043396 0.7348037362098694
vn 0 -0.6782798171043396 0.7348037362098694
vn 0 -0.6782798171043396 0.7348037362098694
vn 0 -0.6782798171043396 0.7348037362098694
f 10/9/9 12/12/12 11/11/11 9/10/10
o object_4
v 898.521554 426.835621 163.786966
v 898.521554 433.368641 163.776377
v 1063.727426 426.835621 163.786966
v 1063.727426 433.368641 163.776377
vt 0 0
vt 1 0
vt 1 1
vt 0 1
vn 0 0.001620840863324702 0.9999986886978149
vn 0 0.001620840863324702 0.9999986886978149
vn 0 0.001620840863324702 0.9999986886978149
vn 0 0.001620840863324702 0.9999986886978149
f 15/13/13 16/14/14 14/15/15 13/16/16
o object_5
v 898.521554 433.368641 163.776377
v 898.521554 433.368641 161.903665
v 1063.727426 433.368641 163.776377
v 1063.727426 433.368641 161.903665
vt 0 0
vt 1 0
vt 1 1
vt 0 1
vn 0 1 0
vn 0 1 0
vn 0 1 0
vn 0 1 0
f 18/17/17 17/18/18 19/19/19 20/20/20
o object_6
v 898.521554 455.538746 179.299387
v 898.521554 448.588977 175.953195
v 1063.727426 455.538746 179.299387
v 1063.727426 448.588977 175.953195
vt 0 0
vt 1 0
vt 1 1
vt 0 1
vn 0 -0.4338163435459137 0.9010013341903687
vn 0 -0.4338163435459137 0.9010013341903687
vn 0 -0.4338163435459137 0.9010013341903687
vn 0 -0.4338163435459137 0.9010013341903687
f 21/21/21 22/22/22 24/23/23 23/24/24
o object_7
v 898.521554 455.538746 179.299387
v 898.521554 461.390491 179.299387
v 1063.727426 455.538746 179.299387
v 1063.727426 461.390491 179.299387
vt 0 0
vt 1 0
vt 1 1
vt 0 1
vn 0 0 1
vn 0 0 1
vn 0 0 1
vn 0 0 1
f 25/25/25 27/26/26 28/27/27 26/28/28
o object_8
v 898.521554 461.476246 181.09144
v 898.521554 461.390491 179.299387
v 1063.727426 461.476246 181.09144
v 1063.727426 461.390491 179.299387
vt 0 0
vt 1 0
vt 1 1
vt 0 1
vn 0 -0.9988570213317871 0.04779824241995812
vn 0 -0.9988570213317871 0.04779824241995812
vn 0 -0.9988570213317871 0.04779824241995812
vn 0 -0.9988570213317871 0.04779824241995812
f 29/29/29 30/30/30 32/31/31 31/32/32
o object_9
v 898.521554 465.319873 181.101175
v 898.521554 461.476246 181.09144
v 1063.690444090775 461.476246 181.09144
v 1063.727426 465.319873 181.101175
vt 0 0
vt 1 0
vt 1 1
vt 0 1
vn 0 -0.002532755956053734 0.9999967813491821
vn 0 -0.002532755956053734 0.9999967813491821
vn 0 -0.002532755956053734 0.9999967813491821
vn 0 -0.002532755956053734 0.9999967813491821
f 33/33/33 34/34/34 35/35/35 36/36/36
