# This file uses meters as units for non-parametric coordinates.

v 687.096863 262.486006 -83.476602
v 687.096863 262.285993 -83.276590
v 686.896851 262.085981 -83.476602
v 686.896851 262.285993 -83.676584
v -50.000000 262.285993 -83.276590
v -50.000000 262.486006 -83.476602
v -49.799999 262.285993 -83.676584
v -49.799999 262.085981 -83.476602
v -50.000000 262.486006 -89.446634
v -49.799999 262.486006 -89.646646
v -49.799999 262.285993 -89.446634
v 686.896851 262.486006 -89.646646
v 687.096863 262.486006 -89.446634
v 686.896851 262.285993 -89.446634
v 687.096863 262.285993 84.303153
v 687.096863 262.486006 84.503135
v 686.896851 262.285993 84.703147
v 686.896851 262.085981 84.503135
v 687.096863 262.486006 90.473197
v 686.896851 262.486006 90.673178
v 686.896851 262.285993 90.473197
v -49.799999 262.486006 90.673178
v -50.000000 262.486006 90.473197
v -49.799999 262.285993 90.473197
v -50.000000 262.486006 84.503135
v -50.000000 262.285993 84.303153
v -49.799999 262.085981 84.503135
v -49.799999 262.285993 84.703147
v -49.799999 139.825483 -83.476602
v -49.799999 139.625486 -83.276590
v -50.000000 139.825483 -83.276590
v -49.799999 139.625486 84.303153
v -49.799999 139.825483 84.503135
v -50.000000 139.825483 84.303153
v 686.896851 139.825483 84.503135
v 686.896851 139.625486 84.303153
v 687.096863 139.825483 84.303153
v 686.896851 139.625486 -83.276590
v 686.896851 139.825483 -83.476602
v 687.096863 139.825483 -83.276590
v -49.799999 277.649061 90.673178
v -49.799999 277.849073 90.473197
v -50.000000 277.649061 90.473197
v -49.799999 277.849073 -89.446634
v -49.799999 277.649061 -89.646646
v -50.000000 277.649061 -89.446634
v 686.896851 277.649061 -89.646646
v 686.896851 277.849073 -89.446634
v 687.096863 277.649061 -89.446634
v 686.896851 277.849073 90.473197
v 686.896851 277.649061 90.673178
v 687.096863 277.649061 90.473197
vn 0.000000 0.000000 -1.000000
vn 0.000000 0.000000 -1.000000
vn 0.000000 0.000000 -1.000000
vn 0.000000 0.000000 -1.000000
vn 0.000000 -1.000000 0.000001
vn 0.000000 -1.000000 0.000001
vn 0.000000 -1.000000 0.000001
vn 0.000000 -1.000000 0.000001
vn 1.000000 0.000000 0.000000
vn 1.000000 0.000000 0.000000
vn 1.000000 0.000000 0.000000
vn 1.000000 0.000000 0.000000
vn 1.000000 0.000000 0.000000
vn 1.000000 0.000000 0.000000
vn 1.000000 0.000000 0.000000
vn 1.000000 0.000000 0.000000
vn -1.000000 0.000000 0.000000
vn -1.000000 0.000000 0.000000
vn -1.000000 0.000000 0.000000
vn -1.000000 0.000000 0.000000
vn 0.000000 0.000000 -1.000000
vn 0.000000 0.000000 -1.000000
vn 0.000000 0.000000 -1.000000
vn 0.000000 0.000000 -1.000000
vn -1.000000 0.000000 0.000000
vn -1.000000 0.000000 0.000000
vn -1.000000 0.000000 0.000000
vn -1.000000 0.000000 0.000000
vn -1.000000 0.000000 0.000000
vn -1.000000 0.000000 0.000000
vn -1.000000 0.000000 0.000000
vn -1.000000 0.000000 0.000000
vn 0.000000 -1.000000 -0.000001
vn 0.000000 -1.000000 -0.000001
vn 0.000000 -1.000000 -0.000001
vn 0.000000 -1.000000 -0.000001
vn -0.000000 0.000000 1.000000
vn -0.000000 0.000000 1.000000
vn -0.000000 0.000000 1.000000
vn -0.000000 0.000000 1.000000
vn 1.000000 0.000000 0.000000
vn 1.000000 0.000000 0.000000
vn 1.000000 0.000000 0.000000
vn 1.000000 0.000000 0.000000
vn 0.000000 0.000000 1.000000
vn 0.000000 0.000000 1.000000
vn 0.000000 0.000000 1.000000
vn 0.000000 0.000000 1.000000
vn 0.000000 -1.000000 -0.000000
vn 0.000000 -1.000000 -0.000000
vn 0.000000 -1.000000 -0.000000
vn 0.000000 -1.000000 -0.000000
vn 0.000000 1.000000 0.000000
vn 0.000000 1.000000 0.000000
vn 0.000000 1.000000 0.000000
vn 0.000000 1.000000 0.000000
vn 0.707091 -0.000000 -0.707122
vn 0.707091 -0.000000 -0.707122
vn 0.707091 -0.000000 -0.707122
vn 0.707091 -0.000000 -0.707122
vn 0.000000 -0.707057 -0.707157
vn 0.000000 -0.707057 -0.707157
vn 0.000000 -0.707057 -0.707157
vn 0.000000 -0.707057 -0.707157
vn 0.707083 -0.707131 -0.000000
vn 0.707083 -0.707131 -0.000000
vn 0.707083 -0.707131 -0.000000
vn 0.707083 -0.707131 -0.000000
vn -0.707130 -0.707083 0.000001
vn -0.707130 -0.707083 0.000001
vn -0.707130 -0.707083 0.000001
vn -0.707130 -0.707083 0.000001
vn -0.707115 0.000000 -0.707099
vn -0.707115 0.000000 -0.707099
vn -0.707115 0.000000 -0.707099
vn -0.707115 0.000000 -0.707099
vn -0.707118 -0.000000 -0.707096
vn -0.707118 -0.000000 -0.707096
vn -0.707118 -0.000000 -0.707096
vn -0.707118 -0.000000 -0.707096
vn 0.000000 -0.707125 -0.707088
vn 0.000000 -0.707125 -0.707088
vn 0.000000 -0.707125 -0.707088
vn 0.000000 -0.707125 -0.707088
vn 0.707107 0.000001 -0.707107
vn 0.707107 0.000001 -0.707107
vn 0.707107 0.000001 -0.707107
vn 0.707107 0.000001 -0.707107
vn 0.707111 -0.707102 0.000000
vn 0.707111 -0.707102 0.000000
vn 0.707111 -0.707102 0.000000
vn 0.707111 -0.707102 0.000000
vn -0.000000 -0.707114 0.707100
vn -0.000000 -0.707114 0.707100
vn -0.000000 -0.707114 0.707100
vn -0.000000 -0.707114 0.707100
vn 0.707058 -0.000000 0.707156
vn 0.707058 -0.000000 0.707156
vn 0.707058 -0.000000 0.707156
vn 0.707058 -0.000000 0.707156
vn 0.707072 0.000001 0.707142
vn 0.707072 0.000001 0.707142
vn 0.707072 0.000001 0.707142
vn 0.707072 0.000001 0.707142
vn 0.000000 -0.707071 0.707142
vn 0.000000 -0.707071 0.707142
vn 0.000000 -0.707071 0.707142
vn 0.000000 -0.707071 0.707142
vn -0.707099 -0.000000 0.707115
vn -0.707099 -0.000000 0.707115
vn -0.707099 -0.000000 0.707115
vn -0.707099 -0.000000 0.707115
vn -0.707127 -0.707087 0.000001
vn -0.707127 -0.707087 0.000001
vn -0.707127 -0.707087 0.000001
vn -0.707127 -0.707087 0.000001
vn -0.707075 0.000000 0.707139
vn -0.707075 0.000000 0.707139
vn -0.707075 0.000000 0.707139
vn -0.707075 0.000000 0.707139
vn 0.000000 -0.707125 -0.707088
vn 0.000000 -0.707125 -0.707088
vn 0.000000 -0.707125 -0.707088
vn 0.000000 -0.707125 -0.707088
vn -0.707096 -0.707117 -0.000000
vn -0.707096 -0.707117 -0.000000
vn -0.707096 -0.707117 -0.000000
vn -0.707096 -0.707117 -0.000000
vn -0.000000 -0.707072 0.707141
vn -0.000000 -0.707072 0.707141
vn -0.000000 -0.707072 0.707141
vn -0.000000 -0.707072 0.707141
vn 0.707108 -0.707105 -0.000000
vn 0.707108 -0.707105 -0.000000
vn 0.707108 -0.707105 -0.000000
vn 0.707108 -0.707105 -0.000000
vn -0.000000 0.707042 0.707172
vn -0.000000 0.707042 0.707172
vn -0.000000 0.707042 0.707172
vn -0.000000 0.707042 0.707172
vn -0.707131 0.707083 -0.000000
vn -0.707131 0.707083 -0.000000
vn -0.707131 0.707083 -0.000000
vn -0.707131 0.707083 -0.000000
vn 0.000000 0.707092 -0.707122
vn 0.000000 0.707092 -0.707122
vn 0.000000 0.707092 -0.707122
vn 0.000000 0.707092 -0.707122
vn 0.707130 0.707083 0.000000
vn 0.707130 0.707083 0.000000
vn 0.707130 0.707083 0.000000
vn 0.707130 0.707083 0.000000
vn 0.816469 -0.408282 -0.408270
vn 0.816469 -0.408282 -0.408270
vn 0.816469 -0.408282 -0.408270
vn 0.816469 -0.408282 -0.408270
vn -0.816497 -0.408221 -0.408274
vn -0.816497 -0.408221 -0.408274
vn -0.816497 -0.408221 -0.408274
vn -0.816497 -0.408221 -0.408274
vn -0.577364 -0.577327 -0.577360
vn -0.577364 -0.577327 -0.577360
vn -0.577364 -0.577327 -0.577360
vn 0.577310 -0.577399 -0.577341
vn 0.577310 -0.577399 -0.577341
vn 0.577310 -0.577399 -0.577341
vn 0.816494 -0.408218 0.408285
vn 0.816494 -0.408218 0.408285
vn 0.816494 -0.408218 0.408285
vn 0.816494 -0.408218 0.408285
vn 0.577282 -0.577368 0.577401
vn 0.577282 -0.577368 0.577401
vn 0.577282 -0.577368 0.577401
vn -0.577336 -0.577294 0.577421
vn -0.577336 -0.577294 0.577421
vn -0.577336 -0.577294 0.577421
vn -0.816481 -0.408247 0.408281
vn -0.816481 -0.408247 0.408281
vn -0.816481 -0.408247 0.408281
vn -0.816481 -0.408247 0.408281
vn -0.577357 -0.577372 -0.577322
vn -0.577357 -0.577372 -0.577322
vn -0.577357 -0.577372 -0.577322
vn -0.577318 -0.577340 0.577394
vn -0.577318 -0.577340 0.577394
vn -0.577318 -0.577340 0.577394
vn 0.577274 -0.577394 0.577383
vn 0.577274 -0.577394 0.577383
vn 0.577274 -0.577394 0.577383
vn 0.577349 -0.577355 -0.577347
vn 0.577349 -0.577355 -0.577347
vn 0.577349 -0.577355 -0.577347
vn -0.577274 0.577339 0.577437
vn -0.577274 0.577339 0.577437
vn -0.577274 0.577339 0.577437
vn -0.577385 0.577336 -0.577330
vn -0.577385 0.577336 -0.577330
vn -0.577385 0.577336 -0.577330
vn 0.577377 0.577319 -0.577355
vn 0.577377 0.577319 -0.577355
vn 0.577377 0.577319 -0.577355
vn 0.577231 0.577393 0.577427
vn 0.577231 0.577393 0.577427
vn 0.577231 0.577393 0.577427
g frieze
f 39//1 29//2 8//3 3//4
f 7//5 11//6 14//7 4//8
f 2//9 1//10 13//11 49//12 52//13 19//14 16//15 15//16
f 5//17 31//18 34//19 26//20
f 45//21 47//22 12//23 10//24
f 26//25 25//26 23//27 43//28 46//29 9//30 6//31 5//32
f 21//33 24//34 28//35 17//36
f 27//37 33//38 35//39 18//40
f 15//41 37//42 40//43 2//44
f 51//45 41//46 22//47 20//48
f 38//49 36//50 32//51 30//52
f 50//53 48//54 44//55 42//56
f 3//57 2//58 40//59 39//60
f 4//61 3//62 8//63 7//64
f 1//65 4//66 14//67 13//68
f 7//69 6//70 9//71 11//72
f 5//73 8//74 29//75 31//76
f 10//77 9//78 46//79 45//80
f 11//81 10//82 12//83 14//84
f 13//85 12//86 47//87 49//88
f 17//89 16//90 19//91 21//92
f 18//93 17//94 28//95 27//96
f 15//97 18//98 35//99 37//100
f 20//101 19//102 52//103 51//104
f 21//105 20//106 22//107 24//108
f 23//109 22//110 41//111 43//112
f 24//113 23//114 25//115 28//116
f 27//117 26//118 34//119 33//120
f 30//121 29//122 39//123 38//124
f 31//125 30//126 32//127 34//128
f 33//129 32//130 36//131 35//132
f 37//133 36//134 38//135 40//136
f 42//137 41//138 51//139 50//140
f 43//141 42//142 44//143 46//144
f 45//145 44//146 48//147 47//148
f 49//149 48//150 50//151 52//152
f 1//153 2//154 3//155 4//156
f 5//157 6//158 7//159 8//160
f 9//161 10//162 11//163
f 12//164 13//165 14//166
f 15//167 16//168 17//169 18//170
f 19//171 20//172 21//173
f 22//174 23//175 24//176
f 25//177 26//178 27//179 28//180
f 29//181 30//182 31//183
f 32//184 33//185 34//186
f 35//187 36//188 37//189
f 38//190 39//191 40//192
f 41//193 42//194 43//195
f 44//196 45//197 46//198
f 47//199 48//200 49//201
f 50//202 51//203 52//204
