# This file uses meters as units for non-parametric coordinates.

v 60.205532 260.654266 122.630868
v 54.569828 259.337952 122.185247
v 60.205532 256.357819 112.069063
v 90.536008 260.663818 122.637346
v 90.550764 260.663910 112.053483
v 84.917152 259.337952 122.185247
v 90.552860 258.412598 112.069063
v 29.858200 260.654266 122.630868
v 24.222488 259.337952 122.185247
v 29.858196 256.357819 112.069063
v 60.205534 260.654266 112.069063
v 29.858196 260.654266 112.069063
v -0.488480 260.663910 112.054483
v -0.467369 260.659058 122.635618
v -0.487900 277.886536 112.037904
v 90.548668 277.886536 112.037904
v 65.841236 259.337952 122.185247
v 90.548668 277.886536 122.640428
v -0.487900 277.886536 122.640428
v 5.146568 259.337952 122.185247
v 35.493904 259.337952 122.185247
v -0.489143 258.412598 112.069063
v -0.489143 256.977417 112.069067
v 7.234329 258.213837 121.996545
v 29.858196 255.446564 112.069063
v 22.134735 258.213837 121.996542
v 8.137123 256.932098 121.974199
v -0.489143 255.273529 112.069067
v 21.231934 256.932098 121.974195
v 29.858196 254.590561 112.069063
v -0.489143 253.754044 112.069063
v 8.538353 255.137680 121.974199
v 29.858200 253.754089 112.069063
v 20.830704 255.137787 121.974210
v -0.489143 252.385361 112.069059
v 8.665901 253.343262 121.974195
v 29.858192 252.385376 112.069063
v 20.703171 253.343338 121.974203
v 60.205532 255.446564 112.069063
v 67.928989 258.213837 121.996542
v 90.552860 256.977356 112.069063
v 82.829395 258.213837 121.996542
v 68.831783 256.932098 121.974199
v 60.205528 254.590546 112.069063
v 81.926598 256.932068 121.974195
v 90.552856 255.273499 112.069059
v 60.205528 253.754044 112.069063
v 69.233028 255.137680 121.974199
v 90.552860 253.754044 112.069063
v 81.525352 255.137695 121.974195
v 60.205532 252.385361 112.069063
v 69.360565 253.343262 121.974195
v 90.552860 252.385361 112.069063
v 81.397823 253.343292 121.974199
v 52.482071 258.213837 121.996542
v 37.581661 258.213837 121.996542
v 51.579277 256.932098 121.974199
v 38.484455 256.932098 121.974199
v 51.178032 255.137680 121.974199
v 38.885700 255.137680 121.974199
v 51.050499 253.343262 121.974199
v 39.013233 253.343262 121.974199
v -0.489143 138.968048 112.069063
v 8.665901 138.968048 121.974199
v 29.858189 138.968048 112.069055
v 20.703140 138.968018 121.974187
v 60.205532 138.968048 112.069063
v 69.360565 138.968033 121.974195
v 90.552860 138.968033 112.069063
v 81.397823 138.968048 121.974199
v 51.050499 138.968048 121.974199
v 39.013233 138.968048 121.974199
vt 0.000000 0.000000
vt 1.000000 0.000000
vt 0.000000 1.000000
vt 1.000000 1.000000
vt 0.000000 0.000000
vt 1.000000 0.000000
vt 0.000000 1.000000
vt 1.000000 1.000000
vt 0.000000 0.000000
vt 1.000000 0.000000
vt 0.000000 0.000000
vt 1.000000 0.000000
vt 1.000000 0.939770
vt 0.000000 0.939770
vt 1.000000 0.939770
vt 0.000000 0.939770
vt 0.000000 0.939770
vt 0.000000 0.060230
vt 1.000000 0.060230
vt 1.000000 0.939770
vt 0.000000 0.954514
vt 0.000000 0.045486
vt 1.000000 0.045486
vt 1.000000 0.954514
vt 1.000000 0.954514
vt 0.000000 0.954514
vt 1.000000 0.954514
vt 0.000000 0.954514
vt 0.000000 0.969258
vt 0.000000 0.030742
vt 1.000000 0.030742
vt 1.000000 0.969258
vt 1.000000 0.969258
vt 0.000000 0.969258
vt 1.000000 0.969258
vt 0.000000 0.969258
vt 0.000000 0.979790
vt 0.000000 0.020210
vt 1.000000 0.020210
vt 1.000000 0.979790
vt 1.000000 0.979790
vt 0.000000 0.979790
vt 1.000000 0.979790
vt 0.000000 0.979790
vt 0.000000 0.989026
vt 0.000000 0.010974
vt 1.000000 0.010974
vt 1.000000 0.989026
vt 1.000000 0.989026
vt 0.000000 0.989026
vt 1.000000 0.989026
vt 0.000000 0.989026
vt 0.000000 0.000000
vt 1.000000 0.000000
vt 1.000000 0.939770
vt 0.000000 0.939770
vt 0.000000 0.010974
vt 0.000000 0.000000
vt 1.000000 0.000000
vt 1.000000 1.000000
vt 0.000000 1.000000
vt 0.000000 0.000000
vt 1.000000 0.000000
vt 1.000000 0.939770
vt 0.000000 0.939770
vt 0.000000 0.000000
vt 1.000000 0.000000
vt 1.000000 0.939770
vt 0.000000 0.939770
vt 1.000000 0.954514
vt 0.000000 0.954514
vt 0.000000 0.060230
vt 1.000000 0.060230
vt 1.000000 1.000000
vt 0.000000 1.000000
vt 1.000000 0.954514
vt 0.000000 0.954514
vt 1.000000 0.954514
vt 0.000000 0.954514
vt 0.000000 0.045486
vt 1.000000 0.045486
vt 1.000000 0.969258
vt 0.000000 0.969258
vt 1.000000 0.969258
vt 0.000000 0.969258
vt 1.000000 0.969258
vt 0.000000 0.969258
vt 0.000000 0.030742
vt 1.000000 0.030742
vt 1.000000 0.979790
vt 0.000000 0.979790
vt 1.000000 0.979790
vt 0.000000 0.979790
vt 1.000000 0.979790
vt 0.000000 0.979790
vt 0.000000 0.020210
vt 1.000000 0.020210
vt 1.000000 0.989026
vt 0.000000 0.989026
vt 1.000000 0.989026
vt 0.000000 0.989026
vt 1.000000 0.989026
vt 0.000000 0.989026
vt 1.000000 0.010974
vt 1.000000 0.999997
vt 0.999908 0.999984
vt 0.000000 1.000000
vt 0.000000 0.000000
vt 1.000000 0.000000
vt 1.000000 0.939770
vt 0.000000 0.939770
vt 0.000000 0.000000
vt 0.000000 0.010974
vt 0.000000 0.000000
vt 1.000000 0.000000
vt 1.000000 1.000000
vt 0.000000 1.000000
vt 0.000000 0.000000
vt 1.000000 0.000000
vt 1.000000 0.939770
vt 0.000000 0.939770
vt 0.000000 0.000000
vt 1.000000 0.000000
vt 1.000000 0.939770
vt 0.000000 0.939770
vt 1.000000 0.954514
vt 0.000000 0.954514
vt 0.000000 0.060230
vt 1.000000 0.060230
vt 1.000000 1.000000
vt 0.000000 1.000000
vt 1.000000 0.954514
vt 0.000000 0.954514
vt 1.000000 0.954514
vt 0.000000 0.954514
vt 0.000000 0.045486
vt 1.000000 0.045486
vt 1.000000 0.969258
vt 0.000000 0.969258
vt 1.000000 0.969258
vt 0.000000 0.969258
vt 1.000000 0.969258
vt 0.000000 0.969258
vt 0.000000 0.030742
vt 1.000000 0.030742
vt 1.000000 0.979790
vt 0.000000 0.979790
vt 1.000000 0.979790
vt 0.000000 0.979790
vt 1.000000 0.979790
vt 0.000000 0.979790
vt 0.000000 0.020210
vt 1.000000 0.020210
vt 1.000000 0.989026
vt 0.000000 0.989026
vt 1.000000 0.989026
vt 0.000000 0.989026
vt 1.000000 0.989026
vt 0.000000 0.989026
vt 1.000000 0.010974
vt 0.000027 0.999984
vt 0.002091 0.000373
vt 0.000000 1.000000
vt 1.000000 1.000000
vt 0.000000 0.000000
vt 1.000000 0.000000
vt 0.000000 1.000000
vt 1.000000 1.000000
vt 0.000000 0.000000
vt 1.000000 0.000000
vt 0.002091 0.999627
vt 0.001568 0.000000
vt 0.001568 1.000000
vt 0.000000 1.000000
vt 1.000000 1.000000
vt 0.000000 0.000000
vt 1.000000 0.000000
vt 0.000000 1.000000
vt 1.000000 1.000000
vt 0.997766 0.000104
vt 0.997840 0.999894
vt 0.997766 0.999896
vt 0.003136 0.666660
vt 0.003136 0.333307
vt 0.604787 -0.076387
vt 0.395246 -0.076387
vt 0.333340 0.000000
vt 0.271434 -0.076387
vt 0.061892 -0.076387
vt 0.000450 0.000560
vt 0.999712 0.000734
vt 0.938140 -0.076387
vt 0.728599 -0.076387
vt 0.666693 0.000000
vt 1.000000 0.998881
vt 1.000000 0.001119
vt 0.997752 0.000104
vt 0.995531 0.999951
vt 0.000000 0.999951
vt 1.000000 0.999951
vt 0.997752 0.000025
vt 0.997766 0.000104
vt 0.000000 0.999951
vt 0.000000 0.000049
vt 0.995531 0.000049
vt 0.000000 0.999951
vt 0.995531 0.999951
vt 0.000000 0.999951
vt 1.000000 0.999951
vt 0.997766 0.999896
vt 0.995531 0.000049
vt 0.000000 0.000049
vn 0.183392 -0.910582 0.370416
vn 0.382634 -0.792146 0.475495
vn 0.382634 -0.792146 0.475495
vn 0.209246 -0.956337 0.204049
vn 0.457032 -0.808213 0.371367
vn 0.457032 -0.808213 0.371367
vn 0.183392 -0.910582 0.370416
vn 0.382634 -0.792146 0.475495
vn 0.382634 -0.792146 0.475495
vn -0.000005 -0.842426 -0.538811
vn -0.000005 -0.842426 -0.538811
vn -0.000005 -0.842426 -0.538811
vn -0.000005 -0.842426 -0.538811
vn -0.000005 -0.000934 -1.000000
vn -0.000005 -0.000934 -1.000000
vn -0.000005 -0.000934 -1.000000
vn -0.000005 -0.000934 -1.000000
vn -0.000009 -0.000446 1.000000
vn -0.000009 -0.000446 1.000000
vn -0.000009 -0.000446 1.000000
vn -0.000009 -0.000446 1.000000
vn -0.000009 -0.000446 1.000000
vn -0.000009 -0.000446 1.000000
vn 0.999999 0.000317 0.001045
vn 1.000000 -0.000306 0.000697
vn 1.000000 -0.000306 0.000697
vn 0.999999 0.000317 0.001045
vn -0.000000 1.000000 0.000000
vn -0.000000 1.000000 0.000000
vn -0.000000 1.000000 0.000000
vn -0.000000 1.000000 0.000000
vn -0.999999 -0.000136 0.001496
vn -0.999999 -0.000579 0.000996
vn -0.999999 -0.000579 0.000996
vn -0.999999 -0.000136 0.001496
vn -0.456809 -0.808387 0.371262
vn -0.707314 -0.405957 0.578711
vn -0.707314 -0.405957 0.578711
vn -0.456809 -0.808387 0.371262
vn 0.637422 -0.469529 0.610930
vn 0.637422 -0.469529 0.610930
vn -0.737690 -0.158504 0.656269
vn -0.737690 -0.158504 0.656269
vn 0.717253 -0.207193 0.665296
vn 0.717253 -0.207193 0.665296
vn -0.736037 -0.059441 0.674327
vn -0.736037 -0.059441 0.674327
vn 0.733649 -0.070644 0.675847
vn 0.733649 -0.070644 0.675847
vn -0.734590 -0.014814 0.678349
vn -0.734590 -0.014814 0.678349
vn 0.734591 -0.014814 0.678349
vn 0.734591 -0.014814 0.678349
vn -0.382636 -0.792145 0.475495
vn -0.637425 -0.469526 0.610930
vn -0.637425 -0.469526 0.610930
vn -0.382636 -0.792145 0.475495
vn 0.707315 -0.405953 0.578712
vn 0.707315 -0.405953 0.578712
vn -0.717253 -0.207192 0.665296
vn -0.717253 -0.207192 0.665296
vn 0.737689 -0.158507 0.656271
vn 0.737689 -0.158507 0.656271
vn -0.733649 -0.070644 0.675847
vn -0.733649 -0.070644 0.675847
vn 0.736037 -0.059439 0.674326
vn 0.736037 -0.059439 0.674326
vn -0.734590 -0.014813 0.678349
vn -0.734590 -0.014813 0.678349
vn 0.734592 -0.014811 0.678347
vn 0.734592 -0.014811 0.678347
vn 0.637425 -0.469528 0.610928
vn 0.637425 -0.469528 0.610928
vn -0.382636 -0.792146 0.475494
vn -0.637424 -0.469527 0.610930
vn -0.637424 -0.469527 0.610930
vn -0.382636 -0.792146 0.475494
vn 0.717254 -0.207192 0.665296
vn 0.717254 -0.207192 0.665296
vn -0.717252 -0.207195 0.665296
vn -0.717252 -0.207195 0.665296
vn 0.733646 -0.070643 0.675849
vn 0.733646 -0.070643 0.675849
vn -0.733650 -0.070643 0.675846
vn -0.733650 -0.070643 0.675846
vn 0.734591 -0.014812 0.678349
vn 0.734591 -0.014812 0.678349
vn -0.734591 -0.014811 0.678348
vn -0.734591 -0.014811 0.678348
vn -0.208744 -0.956503 0.203784
vn 1.000000 0.000000 -0.000000
vn 1.000000 0.000000 -0.000000
vn 1.000000 0.000000 -0.000000
vn 0.000164 -0.002226 -0.999997
vn 0.000164 -0.002226 -0.999997
vn 0.000082 -0.001114 -0.999999
vn 0.000082 -0.001114 -0.999999
vn -0.000000 -0.000001 -1.000000
vn -0.000000 -0.000001 -1.000000
vn 0.000000 -0.091746 0.995782
vn 0.000030 -0.244404 0.969673
vn 0.000030 -0.244404 0.969673
vn 0.000000 -0.091746 0.995782
vn -0.000000 -0.000001 -1.000000
vn -0.000000 -0.000001 -1.000000
vn -0.000000 -0.008714 0.999962
vn -0.000000 -0.008714 0.999962
vn 0.000000 0.000001 -1.000000
vn 0.000000 0.000001 -1.000000
vn -0.000001 0.000000 1.000000
vn -0.000001 0.000000 1.000000
vn -0.000000 0.000000 -1.000000
vn -0.000000 0.000000 -1.000000
vn -0.000000 -0.000002 1.000000
vn -0.000000 -0.000002 1.000000
vn -0.734366 0.000000 0.678754
vn -0.734366 0.000000 0.678754
vn -0.000000 0.000000 -1.000000
vn -0.000000 0.000000 -1.000000
vn 0.000000 -0.000000 1.000000
vn 0.000000 -0.000000 1.000000
vn -0.000001 -1.000000 -0.000002
vn -0.000001 -1.000000 -0.000002
vn -0.000001 -1.000000 -0.000002
vn -0.000001 -1.000000 -0.000002
vn -0.999998 0.000308 0.001996
vn 0.734366 -0.000000 0.678753
vn 0.734366 -0.000000 0.678753
vn -0.183390 -0.910582 0.370416
vn 0.999999 0.000941 0.001394
vn -0.000176 -0.002380 -0.999997
vn -0.000088 -0.001190 -0.999999
vn -0.000088 -0.001190 -0.999999
vn -0.000176 -0.002380 -0.999997
vn -0.000000 -0.000000 -1.000000
vn -0.000000 -0.000000 -1.000000
vn 0.000000 -0.091746 0.995782
vn -0.000031 -0.244421 0.969669
vn -0.000031 -0.244421 0.969669
vn 0.000000 -0.091746 0.995782
vn -0.000000 -0.000000 -1.000000
vn -0.000000 -0.000000 -1.000000
vn 0.000000 -0.008715 0.999962
vn 0.000000 -0.008715 0.999962
vn -0.000000 -0.000001 -1.000000
vn -0.000000 -0.000001 -1.000000
vn 0.000000 0.000000 1.000000
vn 0.000000 0.000000 1.000000
vn -0.000000 -0.000000 -1.000000
vn -0.000000 -0.000000 -1.000000
vn -0.000000 -0.000001 1.000000
vn -0.000000 -0.000001 1.000000
vn -0.734366 -0.000000 0.678754
vn -0.734366 -0.000000 0.678754
vn -0.000000 -0.000000 -1.000000
vn -0.000000 -0.000000 -1.000000
vn -0.000000 0.000000 1.000000
vn -0.000000 0.000000 1.000000
vn -0.000000 -1.000000 0.000000
vn -0.000000 -1.000000 0.000000
vn -0.000000 -1.000000 0.000000
vn -0.000000 -1.000000 0.000000
vn -1.000000 0.000000 -0.000000
vn -1.000000 0.000000 -0.000000
vn -1.000000 0.000000 -0.000000
vn 0.734366 0.000000 0.678754
vn 0.734366 0.000000 0.678754
vn -1.000000 0.000000 0.000000
vn -1.000000 0.000000 0.000000
vn -1.000000 0.000000 0.000000
vn -0.000000 -0.000001 -1.000000
vn -0.000000 -0.000001 -1.000000
vn -0.000000 -0.000001 -1.000000
vn -0.000000 -0.000001 -1.000000
vn -0.183390 -0.910582 0.370416
vn -0.000000 0.000000 -1.000000
vn -0.000000 0.000000 -1.000000
vn 0.000000 -0.091746 0.995782
vn 0.000000 -0.091746 0.995782
vn -0.000000 -0.243889 0.969803
vn -0.000000 -0.243889 0.969803
vn -0.000000 0.000002 -1.000000
vn -0.000000 0.000002 -1.000000
vn 0.000000 -0.008715 0.999962
vn 0.000000 -0.008715 0.999962
vn -0.000000 0.000002 -1.000000
vn -0.000000 0.000002 -1.000000
vn 0.000000 -0.000000 1.000000
vn 0.000000 -0.000000 1.000000
vn 0.000000 0.000001 -1.000000
vn 0.000000 0.000001 -1.000000
vn 0.000000 -0.000000 1.000000
vn 0.000000 -0.000000 1.000000
vn 0.734366 -0.000000 0.678754
vn 0.734366 -0.000000 0.678754
vn 0.000000 0.000000 -1.000000
vn 0.000000 0.000000 -1.000000
vn 0.000000 -0.000000 1.000000
vn 0.000000 -0.000000 1.000000
vn 0.000000 -1.000000 -0.000000
vn 0.000000 -1.000000 -0.000000
vn 0.000000 -1.000000 -0.000000
vn 0.000000 -1.000000 -0.000000
vn 1.000000 -0.000000 0.000000
vn 1.000000 -0.000000 0.000000
vn 1.000000 -0.000000 0.000000
vn -0.734366 -0.000000 0.678754
vn -0.734366 -0.000000 0.678754
vn 0.000060 -0.321669 0.946852
vn 0.000060 -0.321669 0.946852
vn -0.000000 -0.320660 0.947194
vn -0.000000 -0.320660 0.947194
vn -0.000062 -0.321702 0.946841
vn -0.000062 -0.321702 0.946841
g triglyph
f 1/180/1 2/47/2 3/46/3
f 4/181/4 6/98/5 7/99/6
f 8/105/7 9/182/8 10/154/9
f 11/155/10 12/184/11 13/183/12 5/173/13
f 5/172/14 13/176/15 15/177/16 16/179/17
f 1/178/18 4/192/19 18/191/20 19/175/21 14/174/22 8/188/23
f 5/185/24 16/171/25 18/169/26 4/170/27
f 15/195/28 19/165/29 18/166/30 16/168/31
f 14/167/32 19/196/33 15/164/34 13/163/35
f 22/162/36 23/113/37 24/152/38 20/153/39
f 10/160/9 9/155/8 26/154/40 25/146/41
f 27/147/42 24/145/38 23/153/37 28/152/43
f 29/144/44 30/138/45 25/139/41 26/147/40
f 31/146/46 32/136/47 27/137/42 28/145/43
f 33/144/48 30/127/45 29/139/44 34/138/49
f 35/126/50 36/128/51 32/129/47 31/137/46
f 37/136/52 33/111/48 34/127/49 38/126/53
f 3/110/54 39/57/55 40/96/56 17/97/57
f 7/104/6 6/99/5 42/98/58 41/90/59
f 43/91/60 40/89/56 39/97/55 44/96/61
f 45/88/62 46/82/63 41/83/59 42/91/58
f 47/90/64 48/80/65 43/81/60 44/89/61
f 49/88/66 46/71/63 45/83/62 50/82/67
f 51/70/68 52/72/69 48/73/65 47/81/64
f 53/80/70 49/56/66 50/71/67 54/70/71
f 3/55/3 2/46/2 55/47/72 39/39/73
f 10/38/74 25/50/75 56/42/76 21/43/77
f 57/51/78 44/31/79 39/30/73 55/38/72
f 58/39/80 56/35/76 25/43/75 30/42/81
f 47/34/82 44/22/79 57/30/78 59/31/83
f 33/23/84 60/26/85 58/27/80 30/35/81
f 51/34/86 47/18/82 59/22/83 61/23/87
f 37/19/88 62/14/89 60/15/85 33/27/84
f 14/26/90 22/197/36 20/113/39
f 12/160/91 8/199/92 10/198/93
f 13/155/94 12/161/95 10/200/96 22/158/97
f 23/159/98 22/151/97 10/159/96 25/158/99
f 26/150/100 9/149/101 20/157/102 24/156/103
f 28/148/104 23/143/98 25/151/99 30/150/105
f 29/142/106 26/141/100 24/149/103 27/148/107
f 31/140/108 28/135/104 30/143/105 33/142/109
f 34/134/110 29/133/106 27/141/107 32/140/111
f 35/132/112 31/125/108 33/135/109 37/134/113
f 38/124/114 34/121/110 32/133/111 36/132/115
f 35/120/50 63/128/116 64/131/117 36/130/51
f 63/129/118 35/122/112 37/125/113 65/124/119
f 66/123/120 38/118/114 36/121/115 64/120/121
f 63/119/122 65/114/123 66/117/124 64/116/125
f 13/115/35 22/112/126 14/113/32
f 65/201/127 37/108/52 38/111/53 66/110/128
f 1/109/129 3/202/54 17/57/57
f 7/104/130 5/99/24 4/107/27
f 5/105/131 7/106/132 3/102/133 11/103/134
f 39/203/135 3/95/133 7/103/132 41/102/136
f 42/94/137 6/93/138 17/101/139 40/100/140
f 44/92/141 39/87/135 41/95/136 46/94/142
f 45/86/143 42/85/137 40/93/140 43/92/144
f 47/84/145 44/79/141 46/87/142 49/86/146
f 50/78/147 45/77/143 43/85/144 48/84/148
f 51/76/149 47/69/145 49/79/146 53/78/150
f 54/68/151 50/65/147 48/77/148 52/76/152
f 51/64/68 67/72/153 68/75/154 52/74/69
f 67/73/155 51/66/149 53/69/150 69/68/156
f 70/67/157 54/62/151 52/65/152 68/64/158
f 67/63/159 69/58/160 70/61/161 68/60/162
f 1/59/163 11/205/164 3/204/165
f 69/57/166 53/53/70 54/56/71 70/55/167
f 8/54/168 12/207/169 10/206/170
f 12/50/171 11/209/172 3/208/173 10/45/174
f 8/49/175 10/210/74 21/50/77
f 39/51/176 25/37/177 10/41/174 3/49/173
f 56/45/178 55/44/179 2/40/180 21/48/181
f 44/52/182 30/29/183 25/33/177 39/41/176
f 58/37/184 57/36/185 55/32/179 56/40/178
f 47/44/186 33/21/187 30/25/183 44/33/182
f 60/29/188 59/28/189 57/24/185 58/32/184
f 51/36/190 37/17/191 33/13/187 47/25/186
f 62/21/192 61/16/193 59/20/189 60/24/188
f 51/28/86 61/18/87 71/19/194 67/4/195
f 67/3/196 65/11/197 37/12/191 51/13/190
f 72/17/198 71/9/199 61/10/193 62/20/192
f 67/16/200 71/5/201 72/6/202 65/8/203
f 11/7/204 1/212/205 3/211/206
f 65/46/207 72/1/208 62/2/89 37/15/88
f 8/188/209 14/174/210 20/190/102 9/189/101
f 1/178/211 8/188/212 21/187/181 2/186/180
f 1/178/213 17/194/139 6/193/138 4/192/214
